<?xml version="1.0" encoding="utf-8"?>
<!-- Generator: Adobe Illustrator 23.1.0, SVG Export Plug-In . SVG Version: 6.00 Build 0)  -->
<svg version="1.1" id="_x2018_лой_x5F_1" xmlns="http://www.w3.org/2000/svg" xmlns:xlink="http://www.w3.org/1999/xlink"
	 x="0px" y="0px" viewBox="0 0 3000 2000" style="enable-background:new 0 0 3000 2000;" xml:space="preserve">
<style type="text/css">
	.st0{display:none;fill:#FFFFFF;}
	.st1{fill:#EBF3FA;}
	.st2{opacity:0.4;fill:#CDDFF9;}
	.st3{fill:#CDDFF9;}
	.st4{fill:#DFEBFD;}
	.st5{opacity:0.5;}
	.st6{fill:#AAC9F5;}
	.st7{fill:#CDE0FB;}
	.st8{fill:#2B478B;}
	.st9{fill:#DDE7FE;}
	.st10{fill:#AEC3FF;}
	.st11{fill:#233862;}
	.st12{fill:#FFB27D;}
	.st13{fill:#ED985F;}
	.st14{fill:#2C3A64;}
	.st15{fill:#F99746;}
	.st16{fill:#FFFFFF;}
	.st17{fill:#CFDEFF;}
	.st18{fill:#1F1F89;}
	.st19{fill:#F78248;}
	.st20{fill:#F77D48;}
	.st21{fill:#FFB93E;}
	.st22{fill:#FFA412;}
	.st23{fill:#FFEDDC;}
	.st24{fill:#DB6A1D;}
	.st25{fill:#E5C1A1;}
	.st26{fill:#F9DDBF;}
	.st27{opacity:0.5;fill:#E2810E;}
	.st28{fill:#E2810E;}
	.st29{fill:#ED7D2B;}
	.st30{fill:#ED975D;}
	.st31{fill:#8EA3ED;}
	.st32{fill:#2A539B;}
	.st33{fill:#4075C1;}
	.st34{fill:#163560;}
	.st35{fill:#D35B31;}
	.st36{fill:#E8945B;}
	.st37{fill:#2E3552;}
</style>
<rect class="st0" width="3000" height="2000"/>
<g>
	<path class="st1" d="M217.16,1784.87c0,0-316.39-302.83,4.52-741.26c286.74-391.74,72.63-578.9,366.94-769.79
		c297.48-192.94,550.59-75.43,835.35,73.73c284.75,149.16,677.98-207.91,1102.85-18.08c424.87,189.83,363.78,480.01,258.68,778.35
		c-88.72,251.85,181.06,433.83,33.9,677.47C2819.4,1785.3,208.12,1775.83,217.16,1784.87z"/>
	<path class="st2" d="M1848.21,685.66c0,0,44.79-187.82,194.43-208.12c0,0,29.11-3.5,38.72,28.57
		c9.61,32.07-48.25,32.16-84.05,44.96C1961.51,563.87,1877.99,618.32,1848.21,685.66z"/>
	<path class="st2" d="M1850.95,721.26c0,0,85.79-172.99,236.16-159.2c0,0,29.16,3.12,31.33,36.53c2.17,33.41-54.24,20.52-92,24.96
		C1988.69,627.99,1895.08,662.31,1850.95,721.26z"/>
	<path class="st3" d="M2302.5,1441.68c0,0,44.79-187.82,194.43-208.12c0,0,29.11-3.5,38.72,28.57
		c9.61,32.07-48.25,32.16-84.05,44.96C2415.8,1319.9,2332.28,1374.34,2302.5,1441.68z"/>
	<path class="st4" d="M2307.34,1380.08c0,0-24.55-191.52,108.22-263.45c0,0,25.99-13.58,46.33,13.02
		c20.34,26.59-33.75,47.15-62.71,71.79C2370.22,1226.08,2311.37,1306.55,2307.34,1380.08z"/>
	<path class="st4" d="M2756.44,1419.67c-16.87-71.67-137.61-53.52-137.61-53.52s-85.66,121.54-109.47,123.7
		c-23.8,2.16,52.93-118.2,52.93-118.2c-45.78-5.99-164.7,46.3-164.7,46.3s2.52,145.25-21.08,141.49
		c-23.6-3.76,4.34-128.72,4.34-128.72c-44.89,11.82-88.12,62.21-88.12,62.21c-54.69,82.59,54.32,148.48,54.32,148.48
		s-0.21,50.36-33.27,107.01l0,0c0,0-7.38,10.42-15.13,28.29l12.12,0.41c1.1-3.21,2.3-6.31,3.6-9.28c0-0.02,0.01-0.04,0.03-0.05
		c0.02-0.04,0.04-0.09,0.06-0.13c0.89-1.84,2.18-4.46,3.77-7.65c0,0,0-0.01,0.01-0.01c0-0.01,0.01-0.01,0.01-0.02
		c3.95-7.11,6.63-12.37,8.34-16.18c0.01-0.01,0.01-0.02,0.01-0.04c11.86-22.34,28.83-51.41,39.7-57.26c0,0-1.28-1.93-2.41-5.64
		c0.77,1.8,1.57,3.67,2.41,5.64c19.24,45.09,122.69,55.98,180.87,46.09c58.17-9.89,33.54-27.01,3.32-54.48
		c-30.22-27.46-95.64-22.7-114.55-33.7s9.59-20.42,48-16.16c38.42,4.26,56.38,43.38,118.4,51.39
		c62.02,8.01,113.36-107.28,113.36-107.28c-43.41,11.87-119.65-14.4-122.11-29.3c-2.46-14.9,111.55-9.57,129.48-13.41
		C2741,1525.8,2773.31,1491.34,2756.44,1419.67z"/>
	<path class="st4" d="M536.14,789.08c16.87-71.67,137.61-53.52,137.61-53.52s85.67,121.54,109.47,123.7
		c23.8,2.16-52.93-118.2-52.93-118.2c45.77-5.99,164.7,46.3,164.7,46.3s-2.52,145.25,21.08,141.49
		c23.6-3.76-4.34-128.72-4.34-128.72c44.89,11.82,88.12,62.21,88.12,62.21c54.69,82.59-54.32,148.48-54.32,148.48
		s0.21,50.36,33.27,107.01c0,0,0,0,0,0s7.38,10.42,15.13,28.29l-12.12,0.41c-1.1-3.21-2.3-6.31-3.6-9.28c0-0.02-0.01-0.04-0.03-0.05
		c-0.02-0.04-0.04-0.09-0.06-0.13c-0.89-1.84-2.18-4.46-3.77-7.65c0,0,0-0.01-0.01-0.01c0-0.01-0.01-0.01-0.01-0.02
		c-3.95-7.11-6.63-12.37-8.34-16.18c-0.01-0.01-0.01-0.02-0.01-0.03c-11.86-22.35-28.83-51.41-39.7-57.26c0,0,1.28-1.93,2.41-5.64
		c-0.77,1.8-1.57,3.67-2.41,5.64c-19.24,45.09-122.69,55.98-180.87,46.09c-58.17-9.89-33.54-27.02-3.32-54.48
		c30.22-27.46,95.64-22.7,114.55-33.7c18.91-11.01-9.59-20.41-48-16.16c-38.42,4.26-56.38,43.38-118.4,51.39
		c-62.02,8.01-113.36-107.28-113.36-107.28c43.41,11.87,119.65-14.4,122.11-29.3c2.46-14.9-111.55-9.57-129.48-13.41
		C551.58,895.21,519.27,860.75,536.14,789.08z"/>
	<path class="st4" d="M1270.43,438.79c35.45-67.91,152.49-18.53,152.49-18.53s55.08,144.57,78.52,152.87
		c23.44,8.3-22.93-132.78-22.93-132.78c47.69,5.75,154.12,89.06,154.12,89.06s-39.93,145.77-15.16,148.06
		c24.76,2.29,28.76-130.88,28.76-130.88c42.21,23.47,72.82,85.39,72.82,85.39c33.88,97.33-92.97,135.7-92.97,135.7
		s-12.75,50.82,5.99,116.44l0,0c0,0,4.76,12.4,7.97,32.41l-12.32-2.71c-0.28-3.52-0.69-6.95-1.24-10.29c0.01-0.02,0-0.04-0.01-0.06
		c-0.01-0.05-0.02-0.1-0.02-0.14c-0.43-2.09-1.04-5.06-1.83-8.69c0,0,0-0.01,0-0.01c0-0.01-0.01-0.01-0.01-0.02
		c-2.15-8.19-3.49-14.18-4.24-18.46c0-0.01,0-0.03,0-0.04c-6.2-25.58-15.83-59.24-25.28-67.94c0,0,1.78-1.62,3.88-5.06
		c-1.24,1.61-2.53,3.3-3.88,5.06c-31,40.5-138.09,24.85-194.19-0.09c-56.1-24.94-26.86-35.86,10.68-55.77
		c37.53-19.91,102.25,1.73,124.15-4.49c21.89-6.23-4.41-23.05-44.23-28.64s-68,29.21-132.58,21.33
		c-64.58-7.88-86.67-137.32-86.67-137.32c40.71,23.14,124.32,16.28,130.64,1.9c6.32-14.38-109.99-38.36-127.08-46.85
		C1258.68,549.76,1234.98,506.7,1270.43,438.79z"/>
	<g class="st5">
		<path class="st6" d="M2676.85,540.22l68.47,261.93c3.02,11.56-3.97,23.49-15.52,26.51l-459.48,120.11
			c-11.56,3.02-23.49-3.97-26.51-15.52l-68.47-261.92c-3.02-11.56,3.97-23.49,15.52-26.51l459.48-120.11
			C2661.9,521.68,2673.83,528.66,2676.85,540.22z"/>
		<g>
			<path class="st7" d="M2486.33,836.34l-122.46,32.01c-5.18,1.35-10.53-1.78-11.88-6.96l-0.31-1.18
				c-1.35-5.18,1.78-10.53,6.96-11.88l122.46-32.01c5.18-1.35,10.53,1.78,11.88,6.96l0.31,1.18
				C2494.64,829.63,2491.51,834.98,2486.33,836.34z"/>
			<g>
				<path class="st7" d="M2422.26,716.81c1.17,4.47,1.35,8.33,0.54,11.58c-1.02,4.11-3.57,6.7-7.66,7.77
					c-4.09,1.07-7.58,0.06-10.48-3.03c-2.3-2.45-4.03-5.9-5.2-10.36c-1.17-4.46-1.36-8.31-0.57-11.53c1.02-4.11,3.58-6.71,7.7-7.78
					c4.12-1.08,7.63-0.07,10.53,3.02C2419.37,708.9,2421.09,712.34,2422.26,716.81z M2416.63,718.25c-0.73-2.8-1.66-5.07-2.79-6.81
					c-1.73-2.6-3.7-3.61-5.92-3.03c-2.27,0.6-3.52,2.43-3.73,5.51c-0.16,2.08,0.12,4.53,0.86,7.36c1.99,7.62,4.93,10.92,8.82,9.9
					c2.25-0.59,3.47-2.45,3.66-5.58C2417.68,723.56,2417.38,721.11,2416.63,718.25z"/>
				<path class="st7" d="M2447.4,710.23c1.17,4.47,1.35,8.33,0.54,11.58c-1.02,4.11-3.57,6.7-7.66,7.77
					c-4.09,1.07-7.59,0.06-10.49-3.03c-2.3-2.45-4.04-5.9-5.2-10.36c-1.17-4.46-1.36-8.31-0.57-11.53c1.02-4.11,3.58-6.71,7.7-7.78
					c4.12-1.08,7.63-0.07,10.53,3.02C2444.52,702.33,2446.23,705.77,2447.4,710.23z M2441.78,711.68c-0.73-2.8-1.66-5.07-2.79-6.81
					c-1.73-2.6-3.7-3.61-5.92-3.03c-2.27,0.59-3.52,2.43-3.73,5.51c-0.16,2.08,0.12,4.53,0.86,7.36c1.99,7.62,4.93,10.92,8.82,9.9
					c2.25-0.59,3.47-2.45,3.66-5.58C2442.83,716.99,2442.52,714.54,2441.78,711.68z"/>
				<path class="st7" d="M2485.51,700.27c1.17,4.46,1.35,8.33,0.54,11.58c-1.02,4.11-3.57,6.7-7.66,7.77
					c-4.09,1.07-7.59,0.06-10.48-3.03c-2.3-2.45-4.03-5.9-5.2-10.36c-1.17-4.46-1.36-8.31-0.57-11.53c1.02-4.11,3.59-6.71,7.71-7.78
					c4.12-1.08,7.63-0.07,10.53,3.02C2482.62,692.36,2484.34,695.81,2485.51,700.27z M2479.88,701.72c-0.73-2.8-1.66-5.07-2.79-6.81
					c-1.73-2.6-3.7-3.61-5.92-3.03c-2.28,0.6-3.52,2.43-3.73,5.51c-0.16,2.08,0.12,4.53,0.86,7.36c1.99,7.62,4.93,10.92,8.82,9.9
					c2.25-0.59,3.47-2.45,3.66-5.58C2480.93,707.03,2480.63,704.58,2479.88,701.72z"/>
				<path class="st7" d="M2510.65,693.7c1.17,4.47,1.35,8.33,0.53,11.58c-1.02,4.11-3.57,6.7-7.66,7.77
					c-4.09,1.07-7.59,0.06-10.48-3.03c-2.3-2.45-4.03-5.9-5.2-10.36c-1.17-4.46-1.35-8.31-0.57-11.53c1.02-4.11,3.59-6.71,7.71-7.78
					c4.12-1.08,7.63-0.07,10.53,3.02C2507.77,685.79,2509.48,689.24,2510.65,693.7z M2505.03,695.15c-0.73-2.8-1.66-5.07-2.79-6.81
					c-1.73-2.6-3.7-3.61-5.92-3.03c-2.28,0.6-3.52,2.43-3.73,5.51c-0.17,2.08,0.12,4.53,0.86,7.36c1.99,7.62,4.93,10.92,8.82,9.9
					c2.25-0.59,3.47-2.45,3.66-5.58C2506.08,700.45,2505.77,698,2505.03,695.15z"/>
				<path class="st7" d="M2535.8,687.13c1.17,4.47,1.35,8.33,0.53,11.58c-1.02,4.11-3.57,6.7-7.66,7.77
					c-4.09,1.07-7.58,0.06-10.48-3.03c-2.3-2.45-4.03-5.9-5.2-10.36c-1.17-4.46-1.36-8.31-0.57-11.53c1.02-4.11,3.59-6.71,7.71-7.78
					c4.12-1.08,7.63-0.07,10.53,3.02C2532.91,679.22,2534.63,682.66,2535.8,687.13z M2530.17,688.57c-0.73-2.8-1.66-5.07-2.8-6.81
					c-1.73-2.6-3.7-3.61-5.91-3.03c-2.28,0.59-3.52,2.43-3.73,5.51c-0.16,2.08,0.12,4.53,0.86,7.36c1.99,7.62,4.93,10.92,8.82,9.9
					c2.25-0.59,3.47-2.45,3.66-5.58C2531.22,693.88,2530.92,691.43,2530.17,688.57z"/>
				<path class="st7" d="M2560.94,680.55c1.17,4.46,1.35,8.33,0.53,11.58c-1.02,4.11-3.57,6.7-7.66,7.77
					c-4.09,1.07-7.58,0.06-10.48-3.03c-2.3-2.44-4.03-5.9-5.2-10.36c-1.17-4.46-1.36-8.31-0.57-11.53c1.02-4.11,3.59-6.71,7.71-7.78
					c4.12-1.08,7.63-0.07,10.53,3.02C2558.06,672.65,2559.77,676.09,2560.94,680.55z M2555.32,682c-0.73-2.8-1.66-5.07-2.8-6.81
					c-1.73-2.6-3.7-3.61-5.91-3.03c-2.28,0.59-3.52,2.43-3.73,5.51c-0.16,2.08,0.12,4.53,0.86,7.36c1.99,7.62,4.93,10.92,8.82,9.9
					c2.25-0.59,3.47-2.45,3.66-5.58C2556.37,687.31,2556.06,684.86,2555.32,682z"/>
				<path class="st7" d="M2599.05,670.59c1.17,4.47,1.35,8.33,0.54,11.58c-1.02,4.11-3.57,6.7-7.66,7.77
					c-4.09,1.07-7.59,0.06-10.48-3.03c-2.3-2.45-4.03-5.9-5.2-10.36c-1.17-4.46-1.36-8.31-0.57-11.53c1.02-4.11,3.59-6.71,7.71-7.78
					c4.12-1.08,7.63-0.07,10.53,3.02C2596.16,662.68,2597.88,666.13,2599.05,670.59z M2593.42,672.04c-0.73-2.8-1.66-5.07-2.8-6.81
					c-1.73-2.6-3.7-3.61-5.92-3.03c-2.28,0.6-3.52,2.43-3.73,5.51c-0.16,2.08,0.12,4.53,0.86,7.36c1.99,7.62,4.93,10.92,8.82,9.9
					c2.25-0.59,3.47-2.45,3.66-5.58C2594.47,677.35,2594.17,674.9,2593.42,672.04z"/>
				<path class="st7" d="M2624.19,664.02c1.17,4.47,1.35,8.33,0.54,11.58c-1.02,4.11-3.57,6.7-7.66,7.77
					c-4.09,1.07-7.58,0.06-10.48-3.03c-2.3-2.45-4.03-5.9-5.2-10.36c-1.17-4.46-1.36-8.31-0.57-11.53c1.02-4.11,3.59-6.71,7.71-7.78
					c4.12-1.08,7.63-0.07,10.53,3.02C2621.31,656.11,2623.02,659.56,2624.19,664.02z M2618.57,665.47c-0.73-2.8-1.66-5.07-2.8-6.81
					c-1.73-2.6-3.7-3.61-5.91-3.03c-2.28,0.59-3.52,2.43-3.73,5.51c-0.16,2.08,0.12,4.53,0.86,7.36c1.99,7.62,4.93,10.92,8.82,9.9
					c2.25-0.59,3.47-2.45,3.67-5.58C2619.62,670.77,2619.32,668.32,2618.57,665.47z"/>
				<path class="st7" d="M2649.33,657.45c1.17,4.46,1.35,8.33,0.54,11.58c-1.02,4.11-3.57,6.7-7.66,7.77
					c-4.09,1.07-7.59,0.06-10.48-3.03c-2.3-2.45-4.03-5.9-5.2-10.37c-1.17-4.46-1.36-8.31-0.57-11.53c1.02-4.11,3.59-6.71,7.71-7.78
					c4.12-1.08,7.63-0.07,10.53,3.02C2646.45,649.54,2648.17,652.98,2649.33,657.45z M2643.71,658.89c-0.73-2.8-1.66-5.07-2.8-6.81
					c-1.73-2.6-3.7-3.61-5.92-3.03c-2.27,0.59-3.52,2.43-3.73,5.51c-0.17,2.08,0.12,4.53,0.86,7.36c1.99,7.62,4.93,10.92,8.82,9.9
					c2.25-0.59,3.47-2.45,3.66-5.58C2644.76,664.2,2644.46,661.75,2643.71,658.89z"/>
				<path class="st7" d="M2674.48,650.87c1.17,4.47,1.35,8.33,0.53,11.58c-1.02,4.11-3.57,6.7-7.66,7.77
					c-4.09,1.07-7.59,0.06-10.48-3.03c-2.3-2.44-4.03-5.9-5.2-10.36c-1.17-4.46-1.36-8.31-0.57-11.53c1.02-4.11,3.59-6.71,7.71-7.78
					c4.12-1.08,7.63-0.07,10.53,3.02C2671.6,642.97,2673.31,646.41,2674.48,650.87z M2668.86,652.32c-0.73-2.8-1.66-5.07-2.8-6.81
					c-1.73-2.6-3.7-3.61-5.91-3.03c-2.28,0.59-3.52,2.43-3.73,5.51c-0.16,2.08,0.12,4.53,0.86,7.36c1.99,7.62,4.93,10.92,8.82,9.9
					c2.25-0.59,3.47-2.45,3.66-5.58C2669.91,657.63,2669.6,655.18,2668.86,652.32z"/>
			</g>
			<path class="st7" d="M2342.93,647.83l-119.84,31.33c-5.18,1.35-10.53-1.78-11.88-6.96l0,0c-1.35-5.18,1.78-10.53,6.96-11.88
				L2338,628.99c5.18-1.35,10.53,1.78,11.88,6.96l0,0C2351.24,641.13,2348.11,646.47,2342.93,647.83z"/>
			<g>
				<g>
					<path class="st7" d="M2632.85,593.47c-0.89-3.42-2.91-6.26-5.55-8.22c-0.77-0.57-1.86-0.34-2.34,0.49l-0.41,0.72
						c-0.4,0.69-0.23,1.57,0.41,2.05c1.91,1.43,3.36,3.49,4.01,5.98c0.65,2.48,0.39,4.99-0.57,7.17c-0.32,0.73-0.04,1.58,0.65,1.99
						l0.71,0.42c0.82,0.49,1.89,0.15,2.28-0.72C2633.38,600.34,2633.74,596.89,2632.85,593.47z"/>
				</g>
				<g>
					<path class="st7" d="M2640.62,591.44c-1.47-5.62-4.91-10.22-9.39-13.23c-0.76-0.51-1.8-0.25-2.25,0.54l-0.23,0.41
						c-0.42,0.73-0.19,1.65,0.5,2.12c3.74,2.54,6.61,6.39,7.83,11.09c1.23,4.7,0.61,9.46-1.41,13.5c-0.38,0.75-0.13,1.66,0.6,2.09
						l0.4,0.24c0.79,0.47,1.82,0.19,2.23-0.63C2641.33,602.75,2642.09,597.06,2640.62,591.44z"/>
				</g>
				<g>
					<path class="st7" d="M2647.42,589.66c-1.97-7.52-6.63-13.64-12.7-17.58c-0.76-0.5-1.79-0.24-2.24,0.55l0,0
						c-0.42,0.73-0.19,1.66,0.51,2.12c5.42,3.52,9.59,8.98,11.35,15.71c1.76,6.72,0.79,13.53-2.21,19.25
						c-0.39,0.75-0.13,1.67,0.59,2.1l0,0c0.78,0.47,1.8,0.19,2.22-0.61C2648.31,604.8,2649.38,597.18,2647.42,589.66z"/>
				</g>
				<g>
					<path class="st7" d="M2654.79,587.73c-2.5-9.58-8.51-17.34-16.28-22.26c-0.77-0.49-1.79-0.23-2.24,0.55l-0.4,0.7
						c-0.42,0.74-0.19,1.67,0.52,2.13c6.94,4.41,12.29,11.33,14.53,19.88c2.24,8.56,0.96,17.21-2.94,24.45
						c-0.4,0.75-0.15,1.68,0.58,2.11l0.7,0.42c0.78,0.47,1.79,0.19,2.22-0.61C2655.86,607.02,2657.29,597.31,2654.79,587.73z"/>
				</g>
			</g>
		</g>
	</g>
	<g>
		<path class="st8" d="M2299.75,1756.43H851.94c-18.58,0-33.78-15.2-33.78-33.78V761.42c0-18.58,15.2-33.78,33.78-33.78h1447.81
			c18.58,0,33.78,15.2,33.78,33.78v961.23C2333.53,1741.23,2318.33,1756.43,2299.75,1756.43z"/>
		<rect x="852.34" y="763.58" class="st9" width="1447.01" height="982.38"/>
		<path class="st8" d="M2489.42,1782.31H662.27c-13.41,0-24.29-10.87-24.29-24.29v-17.28c0-13.41,10.87-24.29,24.29-24.29h1827.15
			c13.41,0,24.29,10.87,24.29,24.29v17.28C2513.71,1771.43,2502.84,1782.31,2489.42,1782.31z"/>
		<rect x="852.34" y="763.58" class="st10" width="1447.01" height="956.28"/>
	</g>
	<g>
		<path class="st11" d="M369.74,1787.11c0,0,0-14.16,2.14-18.87c2.14-4.71,9.97-23.88,9.97-23.88h30.61c0,0,5.7,17.49,6.05,23.2
			c0.36,5.72,0,19.54,0,19.54H369.74z"/>
		<path class="st11" d="M564.1,1787.11c0,0,0-14.16-2.14-18.87c-2.14-4.71-9.97-23.88-9.97-23.88h-30.61c0,0-5.69,17.49-6.05,23.2
			c-0.36,5.72,0,19.54,0,19.54H564.1z"/>
		<path class="st12" d="M441.46,992.43c0,0-1.08,31.53-5.35,45.65l-33.8,22.28l127.25,17.99l-30.35-39.61c0,0-9.16-42.27-4.36-57.91
			C499.66,965.19,441.46,992.43,441.46,992.43z"/>
		<path class="st13" d="M441.28,996.78c0-0.01,10.06,22.89,29.02,22.38c18.95-0.5,23.27-20.75,23.27-20.75L441.28,996.78z"/>
		<path class="st14" d="M429.97,978.25c0,0-6.12-28.87-10.39-37.61c-4.27-8.74-7.83-47.75,39.51-49.77c0,0,18.15,2.02,28.12-3.7
			c0,0,0,5.72-2.49,7.73c0,0,16.37-3.7,29.19,9.75c12.81,13.45-8.54,60.53-7.47,71.63L429.97,978.25z"/>
		<path class="st12" d="M468.12,1010.32c-13.73-0.23-39.01-17.51-39.01-38.9v-33.39c0-7.81,5.77-14.21,12.81-14.21h52.4
			c7.05,0,12.81,6.39,12.81,14.21v31.5C507.14,991.96,483.88,1010.58,468.12,1010.32z"/>
		<path class="st14" d="M429.11,955.86c0,0,0.07-20.06,16.89-23.15c16.82-3.08,54.46,9.78,59.8-4.85
			c5.34-14.63-72.76-14.38-76.69-5.04C425.18,932.15,429.11,955.86,429.11,955.86z"/>
		<path class="st8" d="M373.58,1296.79c0,0,5.36,154.51-2.65,242.67s0.06,210.86,0.06,210.86s25.61,13.34,53.38,0
			c0,0,30.45-170.32,30.26-210.86c-0.21-43.17,33.14-235.94,33.14-235.94L373.58,1296.79z"/>
		<path class="st8" d="M563,1750.31c0,0-25.61,13.35-53.37,0c0,0-30.44-170.32-30.25-210.85c0.09-18.23-5.81-63.16-12.65-108.96
			c-9.36-62.66-20.49-126.98-20.49-126.98l118.6-7c0,0-9.78,154.78-1.77,242.94C571.07,1627.62,563,1750.31,563,1750.31z"/>
		<path class="st15" d="M563.41,1322.49c0,0-50.56,9.25-96.69,9.25c-20.12,0-41.98-2.09-59.38-4.29
			c-19.24-2.41-33.04-4.96-33.04-4.96s-10.25,0.85-4.2-46.9c4.6-36.34,3.16-69.15,2.14-102.91c-0.12-3.75-0.03-8.19,0.21-13.14
			c1.96-39.36,14.57-110.21,24.17-114.01c0,0,14.28-5.01,39.5-7.46c0,0.46,14.64,20.68,32.01,22.95c10.8-4.04,19.27-7.48,31.09-22.3
			c14.96,1.64,31.28,4.45,48.73,8.88c0,0,1.82,7.5,8.67,137.73C559.33,1236.93,577.97,1322.66,563.41,1322.49z"/>
		<path class="st11" d="M479.37,1539.46c0.09-18.23-5.81-63.16-12.65-108.96c7.1-27.36,24.4-53.69,24.4-53.69
			C513.01,1434.82,479.37,1539.46,479.37,1539.46z"/>
		<path class="st15" d="M325.51,1200.55c-1.21,0.95,3,10.79,9.19,23.63c12.75,26.36,33.93,65.29,33.93,65.29
			c-3.06,10.99-6.43,17.78-6.43,17.78c-35.62-26.44-58.59-48.94-73.25-66.19c-20.61-24.26-24.84-38.17-24.84-38.17
			c79.32-152.54,135.14-158.16,135.14-158.16l-6.59,100.81C392.65,1145.53,329.18,1197.66,325.51,1200.55z"/>
		<path class="st12" d="M364.4,1291.39c0,0,19.22-16.81,27.05-7.4c7.83,9.42,9.25,24.21,3.2,23.2c-6.05-1.01-18.51-6.39-20.29-3.7
			c-1.78,2.69-9.75,7.83-12.17,3.75C359.77,1303.16,364.4,1291.39,364.4,1291.39z"/>
		<path class="st12" d="M368.63,1289.47c-3.06,10.99-6.43,17.78-6.43,17.78c-35.62-26.44-58.59-48.94-73.25-66.19
			c11.05-0.78,27.19-4.51,45.76-16.88C347.45,1250.54,368.63,1289.47,368.63,1289.47z"/>
		<path class="st15" d="M674.98,1202.88c0,0-4.23,13.91-24.84,38.17c-14.66,17.25-37.63,39.75-73.25,66.19c0,0-3.36-6.79-6.43-17.78
			c0,0,21.18-38.93,33.93-65.29c6.19-12.83,10.4-22.68,9.19-23.63c-2.85-2.24-41.62-34.07-58.92-48.26
			c-5.02-4.13-8.22-6.76-8.22-6.76l-3.96-99.31C542.47,1046.21,595.66,1050.34,674.98,1202.88z"/>
		<path class="st12" d="M574.68,1291.39c0,0-19.22-16.81-27.05-7.4c-7.83,9.42-9.25,24.21-3.2,23.2c6.05-1.01,18.51-6.39,20.29-3.7
			c1.78,2.69,9.75,7.83,12.17,3.75C579.31,1303.16,574.68,1291.39,574.68,1291.39z"/>
		<path class="st12" d="M570.46,1289.47c3.06,10.99,6.43,17.78,6.43,17.78c35.62-26.44,58.59-48.94,73.25-66.19
			c-11.05-0.78-27.19-4.51-45.76-16.88C591.63,1250.54,570.46,1289.47,570.46,1289.47z"/>
		<path class="st8" d="M437.89,1030.39c0,0-5.65,2.22-7.25,8.28c0,0,22.66,22.03,37.49,22.36L437.89,1030.39z"/>
		<path class="st8" d="M468.13,1061.03l29.25-31.75c0,0,6.04,3.76,5.95,9.93C503.33,1039.22,480.71,1061.87,468.13,1061.03z"/>
		<path class="st8" d="M462.85,1058.7c0,0-22.33,182.1-14.55,204.3c4,11.43,9.36,21.31,13.62,28.21c3.06,4.96,10.66,4.95,13.7-0.03
			c5.93-9.72,13.68-23.8,13.68-30.94c0-11.57-16.94-201.7-16.94-201.7L462.85,1058.7z"/>
		<path class="st8" d="M457.01,1049.77c0,0,13.5-1.28,21.71-0.49c1.63,0.16,2.54,1.84,1.74,3.19c-2.3,3.92-7,10.7-11.91,10.7
			C461.65,1063.18,450.89,1050.22,457.01,1049.77z"/>
		<path class="st16" d="M457.18,988.82c0,0,4.28,5.47,11.75,5.27c7.47-0.19,10.98-5.27,10.98-5.27S467.31,986.86,457.18,988.82z"/>
	</g>
	<g>
		<g>
			<rect x="1193.24" y="652.12" class="st17" width="935.82" height="996.57"/>
			<g>
				<path class="st8" d="M1863.92,1480.9h-178.37c-0.14,0-0.25-0.11-0.25-0.25v-11.08c0-0.14,0.11-0.25,0.25-0.25h178.37
					c0.14,0,0.25,0.11,0.25,0.25v11.07C1864.17,1480.79,1864.06,1480.9,1863.92,1480.9z"/>
				<path class="st8" d="M1908.24,1454.6h-222.69c-0.13,0-0.24-0.11-0.24-0.24v-11.1c0-0.13,0.11-0.24,0.24-0.24h222.69
					c0.13,0,0.24,0.11,0.24,0.24v11.1C1908.47,1454.49,1908.37,1454.6,1908.24,1454.6z"/>
			</g>
			<g>
				<rect x="1274.42" y="820.41" class="st10" width="773.47" height="544.19"/>
				<g>
					<g>
						<rect x="1455.79" y="789.7" class="st18" width="1.24" height="574.9"/>
					</g>
					<g>
						<rect x="1940.13" y="789.7" class="st18" width="1.24" height="574.9"/>
					</g>
					<g>
						<rect x="1538.04" y="789.7" class="st18" width="1.24" height="574.9"/>
					</g>
					<g>
						<rect x="1274.42" y="1262.78" class="st18" width="773.47" height="1.24"/>
					</g>
					<g>
						<rect x="1274.42" y="1148.89" class="st18" width="773.47" height="1.24"/>
					</g>
					<g>
						<rect x="1274.42" y="1035" class="st18" width="773.47" height="1.24"/>
					</g>
					<g>
						<rect x="1274.42" y="921.11" class="st18" width="773.47" height="1.24"/>
					</g>
				</g>
				<rect x="1274.42" y="722" class="st19" width="773.47" height="110.43"/>
			</g>
			<g>
				<path class="st20" d="M1974.88,1555.14c-17.44,5.34-34.45,8.12-47.83,7.07c-20.39-1.6-31.87-11.69-32.32-28.41
					c-0.36-13.26,5.47-24.88,16.89-34.3c-0.11-0.9-0.2-1.81-0.27-2.72c-0.75-9.35,1.36-15.57,6.29-18.47
					c7.96-4.69,19.79,1.73,20.29,2l-2.65,4.27c-2.65-1.46-10.52-4.66-14.88-2.07c-3.75,2.22-4.21,8.34-3.88,13.31
					c9.3-6.35,21.44-11.54,36.25-15.32c10.94-2.81,23.14-4.67,34.16-5.51c0.06-1.17,0.16-2.21,0.29-3.06
					c0.36-2.3,1.2-4.98,3.59-5.52c0.91-0.19,2.66-0.17,4.22,2.09c1,1.44,1.51,3.52,1.61,6.01c3.8-0.08,7.32-0.02,10.45,0.2
					c0.03-0.06,0.06-0.13,0.09-0.19c-0.76-5.86-0.23-12.76,0.81-17.22c1.32-5.73,3.5-8.62,6.55-8.9c1.83-0.16,3.42,0.77,4.15,2.43
					c1.71,3.88-1.49,14.37-6.12,24.43c0,0.02,0.01,0.04,0.01,0.05c4.34,0.69,7.29,1.83,8.22,3.42c0.7,1.19,0.79,3.03-1.06,4.64
					c-3.51,3.05-6.3,2.28-7.66,1.55c-1.15-0.62-2.07-1.67-2.8-3.03c-3.51,6.55-7.32,12.14-10.32,14.51
					c-2.76,2.19-5.19,1.32-6.09,0.84c-0.47-0.25-0.92-0.59-1.32-1c-1.19,2.75-2.54,5.4-3.99,7.79
					c-5.48,9.08-11.65,13.76-17.84,13.48c-2.54-0.11-4.78-1.06-6.68-2.8c-3.43,7.01-7.74,13.68-12.01,18.66
					c-4.36,5.07-9.91,6.93-15.64,5.24c-10.16-3-19.35-16.88-22.79-33.32c-8.68,8.02-12.91,17.51-12.61,28.4
					c0.39,14.26,9.65,22.2,27.53,23.61c45.11,3.55,124.21-36.07,130.21-65.21l0,0C2052.82,1515.77,2015.29,1542.77,1974.88,1555.14z
					 M1917.18,1501.48c2.75,17.35,11.94,30.09,19.75,32.4c3.66,1.08,7.03-0.15,10.01-3.63c5.08-5.92,9.47-13.23,12.61-20.36
					c-0.9-1.84-1.63-4-2.18-6.46c-1.26-5.72-1.47-13.56,0.02-18.95c-8.43,1.97-16.87,4.62-24.69,8.12
					C1926.71,1495.27,1921.53,1498.24,1917.18,1501.48z M1965.33,1509.59c1.12,1.61,2.62,2.88,4.61,2.96
					c3.96,0.16,8.73-3.83,13.06-10.98c2.25-3.73,4.05-7.71,5.4-11.53c-0.87-3.1-1.32-6.72-1.47-10.05
					c-5.81,0.44-12.13,1.18-18.65,2.3C1971.68,1488.53,1969.71,1499.08,1965.33,1509.59z M1993.86,1490.13
					c0.81,2.33,1.55,2.78,1.56,2.78c2.92-2.37,6.27-7.52,9.31-13.38c-2.48-0.09-5.29-0.1-8.34-0.03
					C1995.97,1482.81,1995.08,1486.46,1993.86,1490.13z M1963.13,1483.77c-1.33,2.62-2.29,11.02-0.67,18.49
					C1965.09,1494.07,1965.62,1486.98,1963.13,1483.77z M2014.68,1480.62c0.01,0.01,0.02,0,0.03,0.01
					C2014.7,1480.62,2014.69,1480.62,2014.68,1480.62z M2013.91,1455.24c-0.46,1.27-0.9,3.07-1.24,5.18
					C2013.29,1458.38,2013.72,1456.61,2013.91,1455.24z"/>
			</g>
		</g>
		<g>
			<path class="st1" d="M1334.64,757.52h6.92v39.39h-6.92V757.52z"/>
			<path class="st1" d="M1352.08,757.52h6.41l21.1,27.23v-27.23h6.81v39.39h-5.8l-21.72-28.02v28.02h-6.81V757.52z"/>
			<path class="st1" d="M1393.15,757.52h7.65l11.87,30.27l11.82-30.27h7.48l-16.37,39.67h-6.08L1393.15,757.52z"/>
			<path class="st1" d="M1434.56,777.22c0-11.08,8.55-20.37,20.65-20.37c12.1,0,20.54,9.17,20.54,20.37
				c0,11.08-8.55,20.37-20.65,20.37C1443,797.59,1434.56,788.41,1434.56,777.22z M1468.49,777.22c0-7.65-5.57-14.01-13.39-14.01
				c-7.82,0-13.28,6.25-13.28,14.01c0,7.65,5.57,14.01,13.39,14.01C1463.03,791.23,1468.49,784.98,1468.49,777.22z"/>
			<path class="st1" d="M1484.53,757.52h6.92v39.39h-6.92V757.52z"/>
			<path class="st1" d="M1500.23,777.22c0-11.2,8.38-20.37,20.31-20.37c7.26,0,11.65,2.53,15.42,6.13l-4.45,5.12
				c-3.15-2.93-6.53-4.9-11.03-4.9c-7.54,0-13,6.19-13,14.01c0,7.71,5.46,14.01,13,14.01c4.84,0,7.93-1.97,11.31-5.12l4.45,4.5
				c-4.11,4.28-8.61,6.98-15.98,6.98C1508.78,797.59,1500.23,788.64,1500.23,777.22z"/>
			<path class="st1" d="M1543.49,757.52h29.2v6.19h-22.28v10.24h19.75v6.19h-19.75v10.58h22.56v6.19h-29.48V757.52z"/>
		</g>
	</g>
	<g>
		<path class="st20" d="M1134.15,1784.74l-395.32-2.46c-17.62-0.11-31.82-14.48-31.71-32.11l2.58-415.49
			c0.11-17.62,14.48-31.82,32.11-31.71l395.32,2.46c17.62,0.11,31.82,14.48,31.71,32.11l-2.58,415.49
			C1166.15,1770.65,1151.77,1784.85,1134.15,1784.74z"/>
		<path class="st10" d="M1128.16,1414.21l-378.73-2.36c-7.75-0.05-13.99-6.37-13.94-14.12l0.3-48.09
			c0.05-7.75,6.37-13.99,14.12-13.94l378.73,2.36c7.75,0.05,13.99,6.37,13.94,14.12l-0.3,48.09
			C1142.23,1408.02,1135.91,1414.26,1128.16,1414.21z"/>
		<g>
			<g>
				<path class="st8" d="M876.14,1599.39l-32.42-0.2c-8.1-0.05-14.63-6.66-14.58-14.76l0.2-32.42c0.05-8.1,6.66-14.63,14.76-14.58
					l32.42,0.2c8.1,0.05,14.63,6.66,14.58,14.76l-0.2,32.42C890.85,1592.91,884.24,1599.44,876.14,1599.39z"/>
				<path class="st8" d="M875.66,1675.18l-32.42-0.2c-8.1-0.05-14.63-6.66-14.58-14.76l0.2-32.42c0.05-8.1,6.66-14.63,14.76-14.58
					l32.42,0.2c8.1,0.05,14.63,6.66,14.58,14.76l-0.2,32.42C890.38,1668.71,883.77,1675.23,875.66,1675.18z"/>
				<path class="st8" d="M875.19,1750.98l-32.42-0.2c-8.1-0.05-14.63-6.66-14.58-14.76l0.2-32.42c0.05-8.1,6.66-14.63,14.76-14.58
					l32.42,0.2c8.1,0.05,14.63,6.66,14.58,14.76l-0.2,32.42C889.9,1744.5,883.3,1751.03,875.19,1750.98z"/>
				<path class="st8" d="M957.76,1599.9l-32.42-0.2c-8.1-0.05-14.63-6.66-14.58-14.76l0.2-32.42c0.05-8.1,6.66-14.63,14.76-14.58
					l32.42,0.2c8.1,0.05,14.63,6.66,14.58,14.76l-0.2,32.42C972.47,1593.42,965.86,1599.95,957.76,1599.9z"/>
				<path class="st8" d="M957.29,1675.69l-32.42-0.2c-8.1-0.05-14.63-6.66-14.58-14.76l0.2-32.42c0.05-8.1,6.66-14.63,14.76-14.58
					l32.42,0.2c8.1,0.05,14.63,6.66,14.58,14.76l-0.2,32.42C972,1669.22,965.39,1675.74,957.29,1675.69z"/>
				<path class="st8" d="M956.82,1751.48l-32.42-0.2c-8.1-0.05-14.63-6.66-14.58-14.76l0.2-32.42c0.05-8.1,6.66-14.63,14.76-14.58
					l32.42,0.2c8.1,0.05,14.63,6.66,14.58,14.76l-0.2,32.42C971.53,1745.01,964.92,1751.54,956.82,1751.48z"/>
				<path class="st8" d="M1036,1676.18l-32.42-0.2c-8.1-0.05-14.63-6.66-14.58-14.76l0.2-32.42c0.05-8.1,6.66-14.63,14.76-14.58
					l32.42,0.2c8.1,0.05,14.63,6.66,14.58,14.76l-0.2,32.42C1050.71,1669.7,1044.1,1676.23,1036,1676.18z"/>
				<path class="st8" d="M1035.53,1751.98l-32.42-0.2c-8.1-0.05-14.63-6.66-14.58-14.76l0.2-32.42c0.05-8.1,6.66-14.63,14.76-14.58
					l32.42,0.2c8.1,0.05,14.63,6.66,14.58,14.76l-0.2,32.42C1050.24,1745.5,1043.63,1752.03,1035.53,1751.98z"/>
			</g>
			<g>
				<path class="st15" d="M798.71,1509.92l-32.42-0.2c-8.1-0.05-14.63-6.66-14.58-14.76l0.12-19.23c0.05-8.1,6.66-14.63,14.76-14.58
					l32.42,0.2c8.1,0.05,14.63,6.66,14.58,14.76l-0.12,19.23C813.42,1503.44,806.81,1509.97,798.71,1509.92z"/>
				<path class="st15" d="M798.21,1589.39l-32.42-0.2c-8.1-0.05-14.63-6.66-14.58-14.76l0.12-19.23c0.05-8.1,6.66-14.63,14.76-14.58
					l32.42,0.2c8.1,0.05,14.63,6.66,14.58,14.76l-0.12,19.23C812.93,1582.91,806.32,1589.44,798.21,1589.39z"/>
				<path class="st15" d="M797.72,1668.86l-32.42-0.2c-8.1-0.05-14.63-6.66-14.58-14.76l0.12-19.23c0.05-8.1,6.66-14.63,14.76-14.58
					l32.42,0.2c8.1,0.05,14.63,6.66,14.58,14.76l-0.12,19.23C812.43,1662.38,805.82,1668.91,797.72,1668.86z"/>
				<path class="st15" d="M797.23,1748.33l-32.42-0.2c-8.1-0.05-14.63-6.66-14.58-14.76l0.12-19.23c0.05-8.1,6.66-14.63,14.76-14.58
					l32.42,0.2c8.1,0.05,14.63,6.66,14.58,14.76l-0.12,19.23C811.94,1741.86,805.33,1748.38,797.23,1748.33z"/>
				<path class="st15" d="M876.61,1523.6l-32.42-0.2c-8.1-0.05-14.63-6.66-14.58-14.76l0.2-32.42c0.05-8.1,6.66-14.63,14.76-14.58
					l32.42,0.2c8.1,0.05,14.63,6.66,14.58,14.76l-0.2,32.42C891.32,1517.12,884.71,1523.65,876.61,1523.6z"/>
				<path class="st15" d="M958.23,1524.1l-32.42-0.2c-8.1-0.05-14.63-6.66-14.58-14.76l0.2-32.42c0.05-8.1,6.66-14.63,14.76-14.58
					l32.42,0.2c8.1,0.05,14.63,6.66,14.58,14.76l-0.2,32.42C972.94,1517.63,966.33,1524.16,958.23,1524.1z"/>
				<path class="st15" d="M1036.94,1524.59l-32.42-0.2c-8.1-0.05-14.63-6.66-14.58-14.76l0.2-32.42c0.05-8.1,6.66-14.63,14.76-14.58
					l32.42,0.2c8.1,0.05,14.63,6.66,14.58,14.76l-0.2,32.42C1051.65,1518.12,1045.04,1524.64,1036.94,1524.59z"/>
				<path class="st15" d="M1110.44,1601.21l-32.42-0.2c-8.1-0.05-14.63-6.66-14.58-14.76l0.2-32.42c0.05-8.1,6.66-14.63,14.76-14.58
					l32.42,0.2c8.1,0.05,14.63,6.66,14.58,14.76l-0.2,32.42C1125.15,1594.74,1118.54,1601.26,1110.44,1601.21z"/>
				<path class="st15" d="M1110.91,1525.42l-32.42-0.2c-8.1-0.05-14.63-6.66-14.58-14.76l0.2-32.42c0.05-8.1,6.66-14.63,14.76-14.58
					l32.42,0.2c8.1,0.05,14.63,6.66,14.58,14.76l-0.2,32.42C1125.62,1518.94,1119.01,1525.47,1110.91,1525.42z"/>
				<path class="st15" d="M1109.49,1752.8l-32.42-0.2c-8.1-0.05-14.63-6.66-14.58-14.76l0.67-108.22
					c0.05-8.1,6.66-14.63,14.76-14.58l32.42,0.2c8.1,0.05,14.63,6.66,14.58,14.76l-0.67,108.22
					C1124.21,1746.32,1117.6,1752.85,1109.49,1752.8z"/>
			</g>
		</g>
		<g>
			<path class="st8" d="M868.34,1373.91l0.06-10.39l1.51-3.95c1.32,0.34,2.14,1.17,2.46,2.49l-0.09,13.85l-1,0.98L868.34,1373.91z
				 M871.28,1377.88l0.98,0.99l-0.09,13.85c-0.34,1.32-1.17,2.14-2.49,2.46l-1.46-3.97l0.06-10.39L871.28,1377.88z"/>
			<path class="st8" d="M885.71,1364.62l-0.06,9.4l-2.99,2.95l-0.98-0.99l0.08-12.86L885.71,1364.62z M881.58,1391.8l0.08-12.86
				l1-0.98l2.95,2.99l-0.06,9.4L881.58,1391.8z M898.87,1395.37l-14.84-0.09c-1.32-0.34-2.14-1.17-2.46-2.49l3.97-1.46l11.87,0.07
				L898.87,1395.37z M897.59,1363.7l-11.82-0.07l-3.95-1.51c0.34-1.32,1.17-2.14,2.49-2.46l14.79,0.09L897.59,1363.7z
				 M898.51,1374.1l0.06-10.39l1.51-3.95c1.32,0.34,2.14,1.17,2.46,2.49l-0.09,13.85l-1,0.98L898.51,1374.1z M901.45,1378.07l0.98,1
				l-0.09,13.85c-0.34,1.32-1.17,2.14-2.49,2.46l-1.46-3.97l0.06-10.39L901.45,1378.07z"/>
			<path class="st8" d="M915.88,1364.8l-0.06,9.4l-2.99,2.95l-0.98-0.99l0.08-12.86L915.88,1364.8z M911.76,1391.98l0.08-12.86
				l1-0.98l2.95,2.99l-0.06,9.4L911.76,1391.98z M929.05,1395.55l-14.84-0.09c-1.32-0.34-2.14-1.17-2.46-2.49l3.97-1.46l11.87,0.07
				L929.05,1395.55z M927.76,1363.89l-11.82-0.07l-3.95-1.51c0.34-1.32,1.17-2.14,2.49-2.46l14.79,0.09L927.76,1363.89z
				 M928.68,1374.28l0.07-10.39l1.51-3.95c1.32,0.34,2.14,1.17,2.46,2.49l-0.09,13.85l-1,0.98L928.68,1374.28z M931.63,1378.26
				l0.98,1l-0.09,13.85c-0.34,1.32-1.17,2.14-2.49,2.46l-1.46-3.97l0.07-10.39L931.63,1378.26z"/>
			<path class="st8" d="M946.05,1364.99l-0.06,9.4l-2.99,2.95l-0.98-1l0.08-12.86L946.05,1364.99z M941.93,1392.17l0.08-12.86
				l1-0.98l2.95,2.98l-0.06,9.4L941.93,1392.17z M959.22,1395.74l-14.84-0.09c-1.32-0.34-2.14-1.17-2.46-2.49l3.97-1.46l11.87,0.07
				L959.22,1395.74z M957.93,1364.08l-11.82-0.07l-3.95-1.51c0.34-1.32,1.17-2.14,2.49-2.46l14.79,0.09L957.93,1364.08z
				 M958.86,1374.47l0.06-10.39l1.51-3.95c1.32,0.34,2.14,1.17,2.46,2.49l-0.09,13.85l-1,0.98L958.86,1374.47z M961.8,1378.45
				l0.98,0.99l-0.09,13.85c-0.34,1.32-1.17,2.14-2.49,2.46l-1.46-3.97l0.07-10.39L961.8,1378.45z"/>
			<path class="st8" d="M976.23,1365.18l-0.06,9.4l-2.99,2.95l-0.98-0.99l0.08-12.86L976.23,1365.18z M972.1,1392.36l0.08-12.86
				l1-0.98l2.95,2.99l-0.06,9.4L972.1,1392.36z M989.39,1395.93l-14.84-0.09c-1.32-0.34-2.14-1.17-2.46-2.49l3.97-1.46l11.87,0.07
				L989.39,1395.93z M988.11,1364.26l-11.82-0.07l-3.95-1.51c0.34-1.32,1.17-2.14,2.49-2.46l14.79,0.09L988.11,1364.26z
				 M989.03,1374.66l0.06-10.39l1.51-3.95c1.32,0.34,2.14,1.17,2.46,2.49l-0.09,13.85l-1,0.98L989.03,1374.66z M991.97,1378.63
				l0.98,1l-0.09,13.85c-0.34,1.32-1.17,2.14-2.49,2.46l-1.46-3.97l0.06-10.39L991.97,1378.63z"/>
			<path class="st8" d="M1006.4,1365.37l-0.06,9.4l-2.99,2.95l-0.98-0.99l0.08-12.86L1006.4,1365.37z M1002.27,1392.55l0.08-12.86
				l1-0.98l2.95,2.99l-0.06,9.4L1002.27,1392.55z M1019.56,1396.12l-14.84-0.09c-1.32-0.34-2.14-1.17-2.46-2.49l3.97-1.46
				l11.87,0.07L1019.56,1396.12z M1018.28,1364.45l-11.82-0.07l-3.95-1.51c0.34-1.32,1.17-2.14,2.49-2.46l14.79,0.09
				L1018.28,1364.45z M1019.2,1374.85l0.06-10.39l1.51-3.95c1.32,0.34,2.14,1.17,2.46,2.49l-0.09,13.85l-1,0.98L1019.2,1374.85z
				 M1022.14,1378.82l0.98,1l-0.09,13.85c-0.34,1.32-1.17,2.14-2.49,2.46l-1.46-3.97l0.06-10.39L1022.14,1378.82z"/>
			<path class="st8" d="M1036.57,1365.55l-0.06,9.4l-2.99,2.95l-0.98-1l0.08-12.86L1036.57,1365.55z M1032.45,1392.74l0.08-12.86
				l1-0.98l2.95,2.98l-0.06,9.4L1032.45,1392.74z M1049.74,1396.3l-14.84-0.09c-1.32-0.34-2.14-1.17-2.46-2.49l3.97-1.46l11.87,0.07
				L1049.74,1396.3z M1048.45,1364.64l-11.82-0.07l-3.95-1.51c0.34-1.32,1.17-2.14,2.49-2.46l14.79,0.09L1048.45,1364.64z
				 M1049.37,1375.03l0.06-10.39l1.51-3.95c1.32,0.34,2.14,1.17,2.46,2.49l-0.09,13.85l-1,0.98L1049.37,1375.03z M1052.32,1379.01
				l0.98,0.99l-0.09,13.85c-0.34,1.32-1.17,2.14-2.49,2.46l-1.46-3.97l0.06-10.39L1052.32,1379.01z"/>
			<path class="st8" d="M1066.74,1365.74l-0.06,9.4l-2.99,2.95l-0.98-0.99l0.08-12.86L1066.74,1365.74z M1062.62,1392.92l0.08-12.86
				l1-0.98l2.95,2.99l-0.06,9.4L1062.62,1392.92z M1079.91,1396.49l-14.84-0.09c-1.32-0.34-2.14-1.17-2.46-2.49l3.97-1.46
				l11.87,0.07L1079.91,1396.49z M1078.62,1364.83l-11.82-0.07l-3.95-1.51c0.34-1.32,1.17-2.14,2.49-2.46l14.79,0.09
				L1078.62,1364.83z M1079.55,1375.22l0.06-10.39l1.51-3.95c1.32,0.34,2.14,1.17,2.46,2.49l-0.09,13.85l-0.99,0.98L1079.55,1375.22
				z M1082.49,1379.2l0.98,1l-0.09,13.85c-0.34,1.32-1.17,2.14-2.49,2.46l-1.46-3.97l0.06-10.39L1082.49,1379.2z"/>
			<path class="st8" d="M1096.92,1365.93l-0.06,9.4l-2.99,2.95l-0.98-0.99l0.08-12.86L1096.92,1365.93z M1092.79,1393.11l0.08-12.86
				l1-0.98l2.95,2.99l-0.06,9.4L1092.79,1393.11z M1110.08,1396.68l-14.84-0.09c-1.32-0.34-2.14-1.17-2.46-2.49l3.97-1.46
				l11.87,0.07L1110.08,1396.68z M1108.79,1365.01l-11.82-0.07l-3.95-1.51c0.34-1.32,1.17-2.14,2.49-2.46l14.79,0.09
				L1108.79,1365.01z M1109.72,1375.41l0.06-10.39l1.51-3.95c1.32,0.34,2.14,1.17,2.46,2.49l-0.09,13.85l-1,0.98L1109.72,1375.41z
				 M1112.66,1379.38l0.98,1l-0.09,13.85c-0.34,1.32-1.17,2.14-2.49,2.46l-1.46-3.97l0.06-10.39L1112.66,1379.38z"/>
		</g>
	</g>
	<g>
		<g>
			<g>
				<g>
					<path class="st21" d="M1526.46,1760.81v16.09c0,1.28-0.47,2.47-1.27,3.46c-0.84,1.04-2.05,1.86-3.46,2.32
						c-0.44,0.15-0.89,0.26-1.35,0.32c-0.43,0.07-0.86,0.1-1.31,0.1h-305.11c-3.69,0-6.77-2.3-7.31-5.27
						c-0.03-0.2-0.06-0.4-0.07-0.61c0-0.1-0.01-0.21-0.01-0.31v-16.09c0-0.1,0.01-0.21,0.01-0.31c0.01-0.21,0.04-0.41,0.07-0.61
						c0.54-2.97,3.62-5.27,7.31-5.27h305.11c0.45,0,0.88,0.03,1.31,0.1c0.47,0.07,0.92,0.18,1.35,0.32
						c1.41,0.46,2.62,1.28,3.46,2.32C1526,1758.35,1526.46,1759.54,1526.46,1760.81z"/>
					<path class="st22" d="M1376.64,1783.1h-163.46c-3.03,0-5.58-1.96-6.34-4.59c-0.07-0.22-0.14-0.45-0.18-0.68
						c-0.03-0.2-0.06-0.4-0.07-0.61c0-0.1-0.01-0.21-0.01-0.31v-16.09c0-0.1,0.01-0.21,0.01-0.31c0.01-0.21,0.04-0.41,0.07-0.61
						c0.04-0.23,0.11-0.46,0.18-0.68c0.76-2.63,3.31-4.59,6.34-4.59h143.39C1358.85,1763.01,1364.19,1774.6,1376.64,1783.1z"/>
					<g>
						<rect x="1485.87" y="1754.62" class="st22" width="3.47" height="28.48"/>
						<rect x="1474.13" y="1754.62" class="st22" width="3.47" height="28.48"/>
						<rect x="1460.05" y="1754.62" class="st22" width="3.47" height="28.48"/>
						<rect x="1438.48" y="1754.62" class="st22" width="3.47" height="28.48"/>
						<rect x="1415.66" y="1754.62" class="st22" width="3.47" height="28.48"/>
						<rect x="1380.68" y="1754.62" class="st22" width="3.47" height="28.48"/>
						<rect x="1347.93" y="1754.62" class="st22" width="3.47" height="28.48"/>
						<rect x="1318.69" y="1754.62" class="st22" width="3.47" height="28.48"/>
						<rect x="1497.04" y="1754.62" class="st22" width="3.47" height="28.48"/>
						<rect x="1504.42" y="1754.62" class="st22" width="3.47" height="28.48"/>
						<rect x="1511.55" y="1754.62" class="st22" width="3.47" height="28.48"/>
						<path class="st22" d="M1520.38,1754.72V1783c-0.42,0.06-0.86,0.1-1.3,0.1h-2.17v-28.48h2.17
							C1519.52,1754.62,1519.96,1754.65,1520.38,1754.72z"/>
						<path class="st22" d="M1525.2,1757.36v23.01c-0.84,1.04-2.05,1.86-3.46,2.32v-27.65
							C1523.15,1755.49,1524.36,1756.31,1525.2,1757.36z"/>
					</g>
				</g>
				<g>
					<path class="st21" d="M1493.84,1732.34v16.08c0,1.29-0.47,2.48-1.26,3.47c-0.21,0.26-0.45,0.51-0.7,0.73
						c-0.76,0.69-1.71,1.24-2.77,1.58c-0.43,0.14-0.89,0.25-1.35,0.31c-0.42,0.07-0.86,0.11-1.3,0.11h-305.12
						c-3.68,0-6.76-2.31-7.3-5.28c-0.03-0.2-0.06-0.4-0.07-0.6c-0.01-0.1-0.01-0.21-0.01-0.32v-16.08c0-0.11,0-0.22,0.01-0.32
						c0.01-0.2,0.04-0.4,0.07-0.6c0.54-2.97,3.62-5.28,7.3-5.28h305.12c0.19,0,0.39,0.01,0.58,0.03c0.08,0,0.14,0.01,0.21,0.02
						c0.01-0.01,0.03-0.01,0.04,0c0.09,0,0.18,0.01,0.28,0.03c0.07,0.01,0.12,0.02,0.19,0.03c0.47,0.07,0.92,0.17,1.35,0.31
						c0.26,0.09,0.5,0.18,0.74,0.29h0.01c0.16,0.08,0.32,0.15,0.48,0.23c0.09,0.05,0.18,0.1,0.27,0.15c0.09,0.05,0.17,0.1,0.25,0.15
						c0.32,0.19,0.62,0.41,0.9,0.66c0.1,0.08,0.17,0.16,0.26,0.24c0.06,0.05,0.1,0.1,0.15,0.14c0.03,0.03,0.06,0.06,0.08,0.09
						l0.07,0.07c0.1,0.1,0.19,0.2,0.28,0.31C1493.37,1729.87,1493.84,1731.05,1493.84,1732.34z"/>
					<path class="st22" d="M1344.01,1754.62h-163.46c-3.03,0-5.58-1.97-6.33-4.6c-0.07-0.22-0.13-0.45-0.18-0.68
						c-0.03-0.2-0.06-0.4-0.07-0.6c-0.01-0.1-0.01-0.21-0.01-0.32v-16.08c0-0.11,0-0.22,0.01-0.32c0.01-0.2,0.04-0.4,0.07-0.6
						c0.04-0.23,0.1-0.46,0.18-0.68c0.76-2.63,3.3-4.6,6.33-4.6h143.39c0.06,0.24,0.12,0.47,0.2,0.71
						C1326.53,1735.16,1331.91,1746.36,1344.01,1754.62z"/>
					<g>
						<rect x="1453.24" y="1726.13" class="st22" width="3.47" height="28.48"/>
						<rect x="1441.51" y="1726.13" class="st22" width="3.47" height="28.48"/>
						<rect x="1427.43" y="1726.13" class="st22" width="3.47" height="28.48"/>
						<rect x="1405.85" y="1726.13" class="st22" width="3.47" height="28.48"/>
						<rect x="1383.04" y="1726.13" class="st22" width="3.47" height="28.48"/>
						<rect x="1348.06" y="1726.13" class="st22" width="3.47" height="28.48"/>
						<rect x="1315.31" y="1726.13" class="st22" width="3.47" height="28.48"/>
						<rect x="1286.06" y="1726.13" class="st22" width="3.47" height="28.48"/>
						<rect x="1464.42" y="1726.13" class="st22" width="3.47" height="28.48"/>
						<rect x="1471.8" y="1726.13" class="st22" width="3.47" height="28.48"/>
						<rect x="1478.93" y="1726.13" class="st22" width="3.47" height="28.48"/>
						<path class="st22" d="M1487.76,1726.23v28.28c-0.42,0.07-0.86,0.1-1.3,0.1h-2.17v-28.48h2.17
							C1486.9,1726.13,1487.33,1726.17,1487.76,1726.23z"/>
						<path class="st22" d="M1492.57,1728.87v23.01c-0.84,1.04-2.05,1.86-3.46,2.32v-27.65
							C1490.53,1727.01,1491.73,1727.83,1492.57,1728.87z"/>
					</g>
				</g>
				<g>
					<path class="st21" d="M1509.6,1704.55v16.09c0,1.28-0.47,2.47-1.27,3.46c-0.84,1.04-2.04,1.86-3.46,2.32
						c-0.43,0.14-0.89,0.25-1.35,0.32c-0.42,0.06-0.86,0.1-1.3,0.1H1197.1c-1.22,0-2.38-0.26-3.4-0.71
						c-2.02-0.89-3.51-2.54-3.89-4.5c-0.03-0.13-0.04-0.27-0.06-0.4c-0.01-0.09-0.02-0.18-0.02-0.28c-0.01-0.1-0.01-0.21-0.01-0.31
						v-16.09c0-0.1,0-0.21,0.01-0.31c0.01-0.2,0.03-0.41,0.07-0.6c0.54-2.98,3.62-5.28,7.3-5.28h305.12c0.44,0,0.88,0.03,1.3,0.1
						c0.47,0.07,0.92,0.17,1.35,0.31c1.42,0.47,2.62,1.29,3.46,2.33C1509.14,1702.08,1509.6,1703.27,1509.6,1704.55z"/>
					<path class="st22" d="M1359.78,1726.83h-163.46c-1.1,0-2.13-0.26-3.03-0.71c-1.81-0.89-3.14-2.54-3.47-4.5
						c-0.03-0.13-0.04-0.27-0.06-0.4c-0.01-0.09-0.02-0.18-0.02-0.28c-0.01-0.1-0.01-0.21-0.01-0.31v-16.09c0-0.1,0-0.21,0.01-0.31
						c0.01-0.2,0.03-0.41,0.07-0.6c0.04-0.23,0.1-0.45,0.17-0.66c0.75-2.65,3.3-4.62,6.34-4.62h143.39
						c2.23,8.15,7.34,19.35,19.07,27.77C1359.1,1726.37,1359.43,1726.61,1359.78,1726.83z"/>
					<g>
						<rect x="1469.01" y="1698.35" class="st22" width="3.47" height="28.48"/>
						<rect x="1457.27" y="1698.35" class="st22" width="3.47" height="28.48"/>
						<rect x="1443.19" y="1698.35" class="st22" width="3.47" height="28.48"/>
						<rect x="1421.62" y="1698.35" class="st22" width="3.47" height="28.48"/>
						<rect x="1398.8" y="1698.35" class="st22" width="3.47" height="28.48"/>
						<rect x="1363.82" y="1698.35" class="st22" width="3.47" height="28.48"/>
						<rect x="1331.07" y="1698.35" class="st22" width="3.47" height="28.48"/>
						<rect x="1301.83" y="1698.35" class="st22" width="3.47" height="28.48"/>
						<rect x="1480.18" y="1698.35" class="st22" width="3.47" height="28.48"/>
						<rect x="1487.56" y="1698.35" class="st22" width="3.47" height="28.48"/>
						<rect x="1494.69" y="1698.35" class="st22" width="3.47" height="28.48"/>
						<path class="st22" d="M1503.52,1698.45v28.29c-0.42,0.06-0.86,0.1-1.3,0.1h-2.17v-28.48h2.17
							C1502.67,1698.35,1503.1,1698.38,1503.52,1698.45z"/>
						<path class="st22" d="M1508.34,1701.09v23.01c-0.84,1.04-2.05,1.86-3.46,2.32v-27.65
							C1506.29,1699.23,1507.5,1700.05,1508.34,1701.09z"/>
					</g>
				</g>
				<g>
					<path class="st21" d="M1516.91,1676.07v16.08c0,1.29-0.47,2.47-1.27,3.46c-0.1,0.13-0.22,0.26-0.33,0.38
						c-0.58,0.62-1.3,1.14-2.11,1.53c-0.32,0.15-0.67,0.3-1.02,0.41c-0.44,0.14-0.89,0.25-1.35,0.31c-0.21,0.03-0.42,0.06-0.64,0.08
						c-0.22,0.02-0.45,0.03-0.67,0.03h-305.11c-3.69,0-6.77-2.31-7.31-5.28c-0.03-0.2-0.06-0.4-0.07-0.6v-16.73
						c0.19-3.02,2.97-5.48,6.5-5.83c0.29-0.03,0.58-0.05,0.88-0.05h305.11c0.22,0,0.45,0.01,0.67,0.03
						c0.22,0.02,0.43,0.04,0.64,0.08c0.47,0.07,0.92,0.17,1.35,0.31c1.41,0.46,2.62,1.28,3.46,2.32
						C1516.45,1673.59,1516.91,1674.78,1516.91,1676.07z"/>
					<path class="st22" d="M1367.09,1698.36h-163.46c-3.03,0-5.58-1.97-6.34-4.6c-0.07-0.22-0.14-0.45-0.18-0.68
						c-0.03-0.2-0.06-0.4-0.07-0.6v-16.73c0.17-3.01,2.66-5.48,5.8-5.83c0.26-0.03,0.51-0.05,0.78-0.05h143.39
						c0,0.02,0.01,0.03,0.01,0.05C1349.32,1678.29,1354.66,1689.86,1367.09,1698.36z"/>
					<g>
						<rect x="1476.32" y="1669.87" class="st22" width="3.47" height="28.48"/>
						<rect x="1464.58" y="1669.87" class="st22" width="3.47" height="28.48"/>
						<rect x="1450.5" y="1669.87" class="st22" width="3.47" height="28.48"/>
						<rect x="1428.93" y="1669.87" class="st22" width="3.47" height="28.48"/>
						<rect x="1406.11" y="1669.87" class="st22" width="3.47" height="28.48"/>
						<rect x="1371.13" y="1669.87" class="st22" width="3.47" height="28.48"/>
						<rect x="1338.38" y="1669.87" class="st22" width="3.47" height="28.48"/>
						<rect x="1309.14" y="1669.87" class="st22" width="3.47" height="28.48"/>
						<rect x="1487.49" y="1669.87" class="st22" width="3.47" height="28.48"/>
						<rect x="1494.87" y="1669.87" class="st22" width="3.47" height="28.48"/>
						<rect x="1502" y="1669.87" class="st22" width="3.47" height="28.48"/>
						<path class="st22" d="M1510.83,1669.96v28.29c-0.43,0.06-0.86,0.1-1.3,0.1h-2.17v-28.48h2.17
							C1509.98,1669.86,1510.41,1669.9,1510.83,1669.96z"/>
						<path class="st22" d="M1515.65,1672.6v23.01c-0.84,1.04-2.05,1.86-3.46,2.32v-27.65
							C1513.6,1670.74,1514.81,1671.56,1515.65,1672.6z"/>
					</g>
				</g>
				<g>
					<path class="st21" d="M1494.48,1647.63v16.08c0,1.29-0.46,2.47-1.26,3.46c-0.84,1.05-2.05,1.87-3.47,2.33
						c-0.43,0.14-0.89,0.25-1.34,0.31c-0.14,0.03-0.29,0.05-0.43,0.06h-0.06c-0.08,0.01-0.15,0.02-0.23,0.02
						c-0.07,0.01-0.12,0.01-0.2,0.02c-0.13,0-0.26,0.01-0.39,0.01h-305.11c-3.94,0-7.18-2.62-7.38-5.88
						c-0.01-0.1-0.01-0.21-0.01-0.32v-16.08c0-0.1,0-0.22,0.01-0.32c0-0.09,0.01-0.17,0.02-0.26c0.29-2.62,2.56-4.79,5.54-5.42
						c0.07-0.02,0.14-0.04,0.22-0.05c0.51-0.1,1.05-0.15,1.6-0.15h305.11c0.23,0,0.44,0.01,0.66,0.03c0.1,0.01,0.19,0.02,0.28,0.03
						c0.01,0,0.01,0,0.02,0h0.01c0.11,0.01,0.23,0.03,0.34,0.05c0.46,0.07,0.91,0.17,1.34,0.31c1.42,0.46,2.63,1.28,3.47,2.32
						C1494.02,1645.16,1494.48,1646.34,1494.48,1647.63z"/>
					<path class="st22" d="M1344.65,1669.91H1181.2c-3.52,0-6.41-2.62-6.59-5.88c-0.01-0.1-0.01-0.21-0.01-0.32v-16.08
						c0-0.1,0-0.22,0.01-0.32c0-0.09,0.01-0.17,0.02-0.26c0.27-2.69,2.37-4.88,5.12-5.46c0.09-0.03,0.18-0.05,0.28-0.06
						c0.38-0.07,0.77-0.1,1.17-0.1h143.38c0.02,0.08,0.04,0.13,0.06,0.21c2.32,8.35,7.65,19.81,19.95,28.23
						C1344.6,1669.88,1344.63,1669.89,1344.65,1669.91z"/>
					<g>
						<rect x="1453.89" y="1641.43" class="st22" width="3.47" height="28.48"/>
						<rect x="1442.15" y="1641.43" class="st22" width="3.47" height="28.48"/>
						<rect x="1428.07" y="1641.43" class="st22" width="3.47" height="28.48"/>
						<rect x="1406.49" y="1641.43" class="st22" width="3.47" height="28.48"/>
						<rect x="1383.68" y="1641.43" class="st22" width="3.47" height="28.48"/>
						<rect x="1348.7" y="1641.43" class="st22" width="3.47" height="28.48"/>
						<rect x="1315.95" y="1641.43" class="st22" width="3.47" height="28.48"/>
						<rect x="1286.71" y="1641.43" class="st22" width="3.47" height="28.48"/>
						<rect x="1465.06" y="1641.43" class="st22" width="3.47" height="28.48"/>
						<rect x="1472.44" y="1641.43" class="st22" width="3.47" height="28.48"/>
						<rect x="1479.57" y="1641.43" class="st22" width="3.47" height="28.48"/>
						<path class="st22" d="M1488.4,1641.53v28.29c-0.42,0.06-0.86,0.1-1.3,0.1h-2.17v-28.48h2.17
							C1487.54,1641.43,1487.98,1641.46,1488.4,1641.53z"/>
						<path class="st22" d="M1493.22,1644.16v23.01c-0.84,1.04-2.05,1.86-3.46,2.32v-27.65
							C1491.17,1642.3,1492.37,1643.12,1493.22,1644.16z"/>
					</g>
				</g>
				<g>
					<path class="st21" d="M1493.84,1619.35v16.08c0,1.29-0.47,2.47-1.26,3.46c-0.21,0.26-0.45,0.5-0.7,0.74
						c-0.76,0.69-1.71,1.24-2.77,1.58c-0.34,0.11-0.7,0.2-1.05,0.27h-0.01c-0.01,0-0.01,0-0.02,0c-0.1,0.02-0.18,0.04-0.28,0.05
						c-0.42,0.07-0.86,0.1-1.3,0.1h-305.12c-0.31,0-0.64-0.02-0.95-0.06c-0.12-0.01-0.25-0.03-0.36-0.05c-3.11-0.48-5.56-2.6-6-5.24
						c-0.03-0.18-0.05-0.35-0.06-0.53c-0.01-0.11-0.01-0.22-0.01-0.32v-16.08c0-0.11,0-0.22,0.01-0.32c0.01-0.2,0.04-0.4,0.07-0.6
						c0.54-2.97,3.62-5.28,7.3-5.28h305.12c0.19,0,0.39,0.01,0.58,0.02c0.03,0,0.06,0.01,0.08,0.01c0.06,0.01,0.11,0.01,0.17,0.01
						c0.09,0.01,0.18,0.02,0.28,0.04c0.07,0,0.12,0.01,0.19,0.03c0.47,0.07,0.92,0.17,1.35,0.31c0.26,0.09,0.5,0.18,0.74,0.29h0.01
						c0.95,0.42,1.78,1.01,2.44,1.72c0.1,0.1,0.19,0.21,0.28,0.31C1493.37,1616.87,1493.84,1618.06,1493.84,1619.35z"/>
					<path class="st22" d="M1344.01,1641.63h-163.46c-0.12,0-0.26-0.01-0.38-0.01c-0.14-0.01-0.29-0.03-0.42-0.04
						c-2.95-0.35-5.32-2.54-5.72-5.3c-0.03-0.18-0.05-0.35-0.06-0.53c-0.01-0.11-0.01-0.22-0.01-0.32v-16.08
						c0-0.11,0-0.22,0.01-0.32c0.01-0.2,0.04-0.4,0.07-0.6c0.04-0.23,0.1-0.46,0.18-0.68c0.76-2.63,3.3-4.6,6.33-4.6h143.39
						c0.06,0.24,0.12,0.47,0.2,0.71c2.37,8.25,7.68,19.33,19.58,27.57C1343.81,1641.5,1343.92,1641.56,1344.01,1641.63z"/>
					<g>
						<rect x="1453.24" y="1613.15" class="st22" width="3.47" height="28.48"/>
						<rect x="1441.51" y="1613.15" class="st22" width="3.47" height="28.48"/>
						<rect x="1427.43" y="1613.15" class="st22" width="3.47" height="28.48"/>
						<rect x="1405.85" y="1613.15" class="st22" width="3.47" height="28.48"/>
						<rect x="1383.04" y="1613.15" class="st22" width="3.47" height="28.48"/>
						<rect x="1348.06" y="1613.15" class="st22" width="3.47" height="28.48"/>
						<rect x="1315.31" y="1613.15" class="st22" width="3.47" height="28.48"/>
						<rect x="1286.06" y="1613.15" class="st22" width="3.47" height="28.48"/>
						<rect x="1464.42" y="1613.15" class="st22" width="3.47" height="28.48"/>
						<rect x="1471.8" y="1613.15" class="st22" width="3.47" height="28.48"/>
						<rect x="1478.93" y="1613.15" class="st22" width="3.47" height="28.48"/>
						<path class="st22" d="M1487.76,1613.24v28.29c-0.42,0.06-0.86,0.1-1.3,0.1h-2.17v-28.48h2.17
							C1486.9,1613.15,1487.33,1613.18,1487.76,1613.24z"/>
						<path class="st22" d="M1492.57,1615.88v23.01c-0.84,1.04-2.05,1.86-3.46,2.32v-27.65
							C1490.53,1614.02,1491.73,1614.84,1492.57,1615.88z"/>
					</g>
				</g>
				<g>
					<path class="st21" d="M1509.6,1591.56v16.08c0,1.29-0.47,2.48-1.27,3.47c-0.84,1.04-2.04,1.86-3.46,2.32
						c-0.43,0.14-0.89,0.25-1.35,0.31c-0.42,0.07-0.86,0.11-1.3,0.11H1197.1c-1.22,0-2.38-0.26-3.4-0.71
						c-2.02-0.89-3.51-2.55-3.89-4.5c-0.03-0.13-0.04-0.27-0.06-0.4c-0.01-0.1-0.02-0.18-0.02-0.28c-0.01-0.1-0.01-0.21-0.01-0.32
						v-16.08c0-0.11,0-0.22,0.01-0.32c0.01-0.2,0.03-0.4,0.07-0.6c0.54-2.97,3.62-5.28,7.3-5.28h305.12c0.44,0,0.88,0.04,1.3,0.1
						c0.47,0.07,0.92,0.17,1.35,0.32c1.42,0.46,2.62,1.28,3.46,2.32C1509.14,1589.1,1509.6,1590.28,1509.6,1591.56z"/>
					<path class="st22" d="M1359.78,1613.85h-163.46c-1.1,0-2.13-0.26-3.03-0.71c-1.81-0.89-3.14-2.55-3.47-4.5
						c-0.03-0.13-0.04-0.27-0.06-0.4c-0.01-0.1-0.02-0.18-0.02-0.28c-0.01-0.1-0.01-0.21-0.01-0.32v-16.08c0-0.11,0-0.22,0.01-0.32
						c0.01-0.2,0.03-0.4,0.07-0.6c0.04-0.23,0.1-0.44,0.17-0.66c0.74-2.64,3.3-4.62,6.34-4.62h143.39
						c2.23,8.16,7.34,19.36,19.07,27.78C1359.1,1613.38,1359.43,1613.61,1359.78,1613.85z"/>
					<g>
						<rect x="1469.01" y="1585.36" class="st22" width="3.47" height="28.48"/>
						<rect x="1457.27" y="1585.36" class="st22" width="3.47" height="28.48"/>
						<rect x="1443.19" y="1585.36" class="st22" width="3.47" height="28.48"/>
						<rect x="1421.62" y="1585.36" class="st22" width="3.47" height="28.48"/>
						<rect x="1398.8" y="1585.36" class="st22" width="3.47" height="28.48"/>
						<rect x="1363.82" y="1585.36" class="st22" width="3.47" height="28.48"/>
						<rect x="1331.07" y="1585.36" class="st22" width="3.47" height="28.48"/>
						<rect x="1301.83" y="1585.36" class="st22" width="3.47" height="28.48"/>
						<rect x="1480.18" y="1585.36" class="st22" width="3.47" height="28.48"/>
						<rect x="1487.56" y="1585.36" class="st22" width="3.47" height="28.48"/>
						<rect x="1494.69" y="1585.36" class="st22" width="3.47" height="28.48"/>
						<path class="st22" d="M1503.52,1585.46v28.29c-0.42,0.06-0.86,0.1-1.3,0.1h-2.17v-28.48h2.17
							C1502.67,1585.36,1503.1,1585.4,1503.52,1585.46z"/>
						<path class="st22" d="M1508.34,1588.1v23.01c-0.84,1.04-2.05,1.86-3.46,2.32v-27.65
							C1506.29,1586.24,1507.5,1587.06,1508.34,1588.1z"/>
					</g>
				</g>
				<g>
					<path class="st21" d="M1534.54,1563.08v16.09c0,1.28-0.47,2.46-1.26,3.45l-0.01,0.01c-0.1,0.13-0.22,0.26-0.33,0.38
						c-0.47,0.5-1.01,0.92-1.63,1.28c-0.31,0.17-0.63,0.33-0.97,0.47c-0.01,0-0.01,0.01-0.01,0.01c-0.16,0.07-0.33,0.13-0.51,0.19
						c-0.43,0.14-0.89,0.25-1.35,0.32c-0.42,0.07-0.86,0.1-1.3,0.1h-305.12c-3.68,0-6.76-2.3-7.3-5.27c-0.04-0.2-0.06-0.4-0.07-0.61
						c-0.01-0.11-0.01-0.21-0.01-0.32v-16.09c0-0.11,0-0.21,0.01-0.31c0.18-3.01,2.96-5.48,6.5-5.83c0.29-0.04,0.57-0.05,0.87-0.05
						h305.12c0.44,0,0.88,0.04,1.3,0.1c0.47,0.08,0.92,0.18,1.35,0.32c1.24,0.4,2.31,1.08,3.13,1.94c0.11,0.12,0.23,0.25,0.33,0.38
						l0.01,0.01C1534.07,1560.62,1534.54,1561.8,1534.54,1563.08z"/>
					<path class="st22" d="M1384.71,1585.36h-163.46c-3.04,0-5.59-1.97-6.34-4.61c-0.07-0.22-0.13-0.44-0.17-0.66
						c-0.04-0.2-0.06-0.4-0.07-0.61c-0.01-0.11-0.01-0.21-0.01-0.32v-16.09c0-0.11,0-0.21,0.01-0.31c0.16-3.01,2.65-5.48,5.79-5.83
						c0.26-0.04,0.51-0.05,0.78-0.05h143.39c0,0.01,0.01,0.03,0.01,0.05C1366.95,1565.31,1372.28,1576.88,1384.71,1585.36z"/>
					<g>
						<rect x="1493.94" y="1556.88" class="st22" width="3.47" height="28.48"/>
						<rect x="1482.21" y="1556.88" class="st22" width="3.47" height="28.48"/>
						<rect x="1468.13" y="1556.88" class="st22" width="3.47" height="28.48"/>
						<rect x="1446.55" y="1556.88" class="st22" width="3.47" height="28.48"/>
						<rect x="1423.74" y="1556.88" class="st22" width="3.47" height="28.48"/>
						<rect x="1388.76" y="1556.88" class="st22" width="3.47" height="28.48"/>
						<rect x="1356.01" y="1556.88" class="st22" width="3.47" height="28.48"/>
						<rect x="1326.76" y="1556.88" class="st22" width="3.47" height="28.48"/>
						<rect x="1505.12" y="1556.88" class="st22" width="3.47" height="28.48"/>
						<rect x="1512.5" y="1556.88" class="st22" width="3.47" height="28.48"/>
						<rect x="1519.63" y="1556.88" class="st22" width="3.47" height="28.48"/>
						<path class="st22" d="M1528.46,1556.98v28.28c-0.42,0.07-0.86,0.1-1.3,0.1h-2.17v-28.48h2.17
							C1527.6,1556.88,1528.03,1556.91,1528.46,1556.98z"/>
						<path class="st22" d="M1533.27,1559.62v23.01c-0.84,1.04-2.05,1.86-3.46,2.32v-27.65
							C1531.23,1557.76,1532.43,1558.57,1533.27,1559.62z"/>
					</g>
				</g>
				<g>
					<path class="st21" d="M1494.48,1534.64v16.08c0,1.29-0.46,2.47-1.26,3.46c-0.84,1.05-2.05,1.87-3.47,2.32
						c-0.43,0.14-0.89,0.25-1.34,0.31c-0.14,0.02-0.29,0.04-0.43,0.06h-0.06c-0.1,0.02-0.19,0.02-0.29,0.03
						c-0.06,0-0.11,0.01-0.17,0.01c-0.12,0-0.24,0.01-0.36,0.01h-305.11c-2.65,0-4.99-1.18-6.28-2.95c-0.64-0.86-1.03-1.86-1.1-2.93
						c-0.01-0.11-0.01-0.22-0.01-0.32v-16.08c0-0.11,0-0.22,0.01-0.32c0.16-2.64,2.33-4.86,5.23-5.6c0.68-0.18,1.4-0.28,2.14-0.28
						h305.11c0.13,0,0.26,0.01,0.39,0.01c0.07,0,0.13,0.01,0.19,0.02c0.25,0.01,0.49,0.04,0.73,0.08c0.46,0.07,0.91,0.17,1.34,0.31
						c0.22,0.07,0.43,0.14,0.63,0.24h0.01c0.81,0.33,1.53,0.79,2.13,1.34c0.01,0.01,0.02,0.02,0.03,0.04
						c0.03,0.03,0.06,0.05,0.09,0.08c0.21,0.19,0.4,0.4,0.58,0.62C1494.02,1532.16,1494.48,1533.36,1494.48,1534.64z"/>
					<path class="st22" d="M1344.65,1556.93H1181.2c-2.3,0-4.34-1.13-5.51-2.81c-0.63-0.9-1.02-1.94-1.08-3.07
						c-0.01-0.11-0.01-0.22-0.01-0.32v-16.08c0-0.11,0-0.22,0.01-0.32c0.16-2.84,2.36-5.19,5.25-5.75c0.43-0.09,0.88-0.13,1.33-0.13
						h143.38c0.06,0.22,0.12,0.44,0.19,0.66c2.37,8.31,7.74,19.5,19.82,27.78C1344.6,1556.89,1344.63,1556.91,1344.65,1556.93z"/>
					<g>
						<rect x="1453.89" y="1528.44" class="st22" width="3.47" height="28.48"/>
						<rect x="1442.15" y="1528.44" class="st22" width="3.47" height="28.48"/>
						<rect x="1428.07" y="1528.44" class="st22" width="3.47" height="28.48"/>
						<rect x="1406.49" y="1528.44" class="st22" width="3.47" height="28.48"/>
						<rect x="1383.68" y="1528.44" class="st22" width="3.47" height="28.48"/>
						<rect x="1348.7" y="1528.44" class="st22" width="3.47" height="28.48"/>
						<rect x="1315.95" y="1528.44" class="st22" width="3.47" height="28.48"/>
						<rect x="1286.71" y="1528.44" class="st22" width="3.47" height="28.48"/>
						<rect x="1465.06" y="1528.44" class="st22" width="3.47" height="28.48"/>
						<rect x="1472.44" y="1528.44" class="st22" width="3.47" height="28.48"/>
						<rect x="1479.57" y="1528.44" class="st22" width="3.47" height="28.48"/>
						<path class="st22" d="M1488.4,1528.54v28.28c-0.42,0.07-0.86,0.1-1.3,0.1h-2.17v-28.48h2.17
							C1487.54,1528.44,1487.98,1528.47,1488.4,1528.54z"/>
						<path class="st22" d="M1493.22,1531.18v23.01c-0.84,1.04-2.05,1.86-3.46,2.32v-27.65
							C1491.17,1529.32,1492.37,1530.14,1493.22,1531.18z"/>
					</g>
				</g>
				<g>
					<path class="st21" d="M1516.91,1506.81v16.09c0,1.28-0.47,2.47-1.27,3.46c-0.84,1.04-2.05,1.86-3.46,2.32
						c-0.43,0.15-0.89,0.25-1.35,0.32c-0.43,0.06-0.86,0.1-1.3,0.1h-305.11c-1.18,0-2.31-0.24-3.3-0.66
						c-2.22-0.94-3.82-2.8-4.06-4.97c-0.01-0.08-0.02-0.17-0.02-0.25c0-0.11-0.01-0.21-0.01-0.32v-16.09c0-0.11,0-0.21,0.01-0.32
						c0.18-3.02,2.97-5.48,6.5-5.84c0.29-0.03,0.58-0.05,0.87-0.05h305.11c0.44,0,0.88,0.03,1.3,0.1c0.46,0.07,0.92,0.18,1.35,0.32
						c1.42,0.46,2.62,1.28,3.46,2.32C1516.45,1504.34,1516.91,1505.53,1516.91,1506.81z"/>
					<path class="st22" d="M1367.09,1529.1h-163.46c-1.06,0-2.06-0.24-2.94-0.66c-1.99-0.94-3.4-2.8-3.62-4.97
						c-0.01-0.08-0.02-0.17-0.02-0.25c0-0.11-0.01-0.21-0.01-0.32v-16.09c0-0.11,0-0.21,0.01-0.32c0.16-3.02,2.65-5.48,5.8-5.84
						c0.25-0.03,0.51-0.05,0.78-0.05h143.39c0,0.01,0.01,0.03,0.01,0.05c2.24,8.17,7.37,19.36,19.12,27.78
						C1366.45,1528.66,1366.77,1528.88,1367.09,1529.1z"/>
					<g>
						<rect x="1476.32" y="1500.61" class="st22" width="3.47" height="28.48"/>
						<rect x="1464.58" y="1500.61" class="st22" width="3.47" height="28.48"/>
						<rect x="1450.5" y="1500.61" class="st22" width="3.47" height="28.48"/>
						<rect x="1428.93" y="1500.61" class="st22" width="3.47" height="28.48"/>
						<rect x="1406.11" y="1500.61" class="st22" width="3.47" height="28.48"/>
						<rect x="1371.13" y="1500.61" class="st22" width="3.47" height="28.48"/>
						<rect x="1338.38" y="1500.61" class="st22" width="3.47" height="28.48"/>
						<rect x="1309.14" y="1500.61" class="st22" width="3.47" height="28.48"/>
						<rect x="1487.49" y="1500.61" class="st22" width="3.47" height="28.48"/>
						<rect x="1494.87" y="1500.61" class="st22" width="3.47" height="28.48"/>
						<rect x="1502" y="1500.61" class="st22" width="3.47" height="28.48"/>
						<path class="st22" d="M1510.83,1500.71V1529c-0.43,0.06-0.86,0.1-1.3,0.1h-2.17v-28.48h2.17
							C1509.98,1500.61,1510.41,1500.65,1510.83,1500.71z"/>
						<path class="st22" d="M1515.65,1503.35v23.01c-0.84,1.04-2.05,1.86-3.46,2.32v-27.65
							C1513.6,1501.49,1514.81,1502.31,1515.65,1503.35z"/>
					</g>
				</g>
				<g>
					<path class="st21" d="M1526.46,1478.37v16.09c0,1.28-0.47,2.47-1.27,3.46c-0.84,1.04-2.05,1.86-3.46,2.32
						c-0.43,0.14-0.89,0.25-1.35,0.32c-0.14,0.02-0.29,0.04-0.43,0.05c-0.08,0.01-0.16,0.01-0.24,0.02
						c-0.08,0.01-0.16,0.01-0.24,0.01c-0.13,0.01-0.26,0.01-0.39,0.01h-305.11c-3.93,0-7.17-2.62-7.37-5.88
						c0-0.11-0.01-0.21-0.01-0.32v-16.09c0-0.11,0-0.21,0.01-0.32c0.2-3.26,3.44-5.88,7.37-5.88h305.11c0.44,0,0.88,0.03,1.3,0.1
						c0.47,0.07,0.92,0.17,1.35,0.32c1.42,0.46,2.62,1.28,3.46,2.32C1526,1475.9,1526.46,1477.09,1526.46,1478.37z"/>
					<path class="st22" d="M1376.63,1500.66h-163.46c-3.51,0-6.4-2.62-6.58-5.88c0-0.11-0.01-0.21-0.01-0.32v-16.09
						c0-0.11,0-0.21,0.01-0.32c0.18-3.26,3.07-5.88,6.58-5.88h143.39c2.29,8.37,7.61,19.94,20.01,28.44
						C1376.59,1500.63,1376.61,1500.64,1376.63,1500.66z"/>
					<g>
						<rect x="1485.87" y="1472.17" class="st22" width="3.47" height="28.48"/>
						<rect x="1474.13" y="1472.17" class="st22" width="3.47" height="28.48"/>
						<rect x="1460.05" y="1472.17" class="st22" width="3.47" height="28.48"/>
						<rect x="1438.48" y="1472.17" class="st22" width="3.47" height="28.48"/>
						<rect x="1415.66" y="1472.17" class="st22" width="3.47" height="28.48"/>
						<rect x="1380.68" y="1472.17" class="st22" width="3.47" height="28.48"/>
						<rect x="1347.93" y="1472.17" class="st22" width="3.47" height="28.48"/>
						<rect x="1318.69" y="1472.17" class="st22" width="3.47" height="28.48"/>
						<rect x="1497.04" y="1472.17" class="st22" width="3.47" height="28.48"/>
						<rect x="1504.42" y="1472.17" class="st22" width="3.47" height="28.48"/>
						<rect x="1511.55" y="1472.17" class="st22" width="3.47" height="28.48"/>
						<path class="st22" d="M1520.38,1472.27v28.29c-0.42,0.06-0.86,0.1-1.3,0.1h-2.17v-28.48h2.17
							C1519.52,1472.17,1519.96,1472.21,1520.38,1472.27z"/>
						<path class="st22" d="M1525.2,1474.91v23.01c-0.84,1.04-2.05,1.86-3.46,2.32v-27.65
							C1523.15,1473.05,1524.36,1473.87,1525.2,1474.91z"/>
					</g>
				</g>
			</g>
			<g>
				<path class="st23" d="M1429.75,1309.85c0,0-16.03,22.56-30.72,22.88c-14.69,0.31-37.04-10.46-37.04-10.46
					s-13.49-30.07-4.34-41.83c0,0,9.18-4.03,18.77,3.08c1.65,1.23,3.32,2.77,4.97,4.76c2.33,2.8,4.94,4.39,7.71,5.23
					c10.48,3.19,22.93-4.31,27.58,2.93c2.72,4.21,5.67,7.37,8.1,9.59C1427.66,1308.6,1429.75,1309.85,1429.75,1309.85z"/>
				<path class="st23" d="M1220.82,1472.59c0,0,56.64-137.25,158.6-139.87c0,0,94.12,10.46,99.34,139.87H1220.82z"/>
				<path class="st24" d="M1351.49,1336.92c0,0,40.87,9.09,53.48,3.75c0,0,1.9-17.09-15.31-14.69c-11.78,1.64-19.45-4.02-23.96-6.32
					C1359.31,1316.4,1349.79,1329.77,1351.49,1336.92z"/>
				<path class="st25" d="M1387.06,1311.16c-2.61,1.96-10.64-27.63-10.64-27.63c1.65,1.23,3.32,2.77,4.97,4.76
					c2.33,2.8,4.94,4.39,7.71,5.23C1389.12,1294.37,1389.59,1309.25,1387.06,1311.16z"/>
				<path class="st25" d="M1424.78,1306.03c-0.58,0.34-19.48,11.66-22.04,11.66c-2.61,0,13.93-21.25,13.93-21.25
					C1419.39,1300.65,1422.35,1303.81,1424.78,1306.03z"/>
				<path class="st26" d="M1276.16,1434.25c-1.05-0.89,40.09-60.56,51.41-61c11.33-0.44,36.78,13.07,55.21,14.81
					c18.43,1.74,36.29-3.49,39.78,7.41c3.49,10.89,13.07,49.51,7.19,55.69C1423.86,1457.34,1298.77,1453.57,1276.16,1434.25z"/>
			</g>
		</g>
		<path class="st27" d="M1314.89,1641.42c-0.01,0.08-0.01,0.14-0.02,0.21c-0.53,9.56-2.07,19.02-4.58,28.23
			c0,0.01-0.01,0.03-0.01,0.05c-0.36,1.33-0.74,2.67-1.15,3.99c-2.55,8.41-5.92,16.59-10.06,24.45
			c-5.19,9.86-11.6,19.21-19.17,27.77c-0.2,0.24-0.41,0.48-0.62,0.71c-9.46,10.59-20.67,20-33.52,27.78
			c-2.71,1.65-5.48,3.22-8.33,4.72c-1.92,1.01-3.86,1.96-5.8,2.89c-1.86,1.08-3.82,2-5.67,3.14c-5.38,3.29-12.09,5.9-19.39,7.98
			v-12.52c0-0.1,0.01-0.21,0.01-0.31c0.01-0.21,0.04-0.41,0.07-0.61c0.04-0.23,0.11-0.46,0.18-0.68c0.76-2.63,3.31-4.59,6.34-4.59
			h-32.63c-3.03,0-5.58-1.97-6.33-4.6c-0.07-0.22-0.13-0.45-0.18-0.68c-0.03-0.2-0.06-0.4-0.07-0.6c-0.01-0.1-0.01-0.21-0.01-0.32
			v-16.08c0-0.11,0-0.22,0.01-0.32c0.01-0.2,0.04-0.4,0.07-0.6c0.04-0.23,0.1-0.46,0.18-0.68c0.76-2.63,3.3-4.6,6.33-4.6h12.73
			c-1.81-0.89-3.14-2.54-3.47-4.5c-0.03-0.13-0.04-0.27-0.06-0.4c-0.01-0.09-0.02-0.18-0.02-0.28c-0.01-0.1-0.01-0.21-0.01-0.31
			v-16.09c0-0.1,0-0.21,0.01-0.31c0.01-0.2,0.03-0.41,0.07-0.6c0.04-0.23,0.1-0.45,0.17-0.66c0.75-2.65,3.3-4.62,6.34-4.62h7.31
			c-3.03,0-5.58-1.97-6.34-4.6c-0.07-0.22-0.14-0.45-0.18-0.68c-0.03-0.2-0.06-0.4-0.07-0.6v-16.73c0.17-3.01,2.66-5.48,5.8-5.83
			h-21.65c-3.52,0-6.41-2.62-6.59-5.88c-0.01-0.1-0.01-0.21-0.01-0.32v-16.08c0-0.1,0-0.22,0.01-0.32c0-0.09,0.01-0.17,0.02-0.26
			c0.27-2.69,2.37-4.88,5.12-5.46c-2.95-0.35-5.32-2.54-5.72-5.3c-0.03-0.18-0.05-0.35-0.06-0.53c-0.01-0.11-0.01-0.22-0.01-0.32
			v-16.08c0-0.11,0-0.22,0.01-0.32c0.01-0.2,0.04-0.4,0.07-0.6c0.04-0.23,0.1-0.46,0.18-0.68c0.76-2.63,3.3-4.6,6.33-4.6h12.73
			c-1.81-0.89-3.14-2.55-3.47-4.5c-0.03-0.13-0.04-0.27-0.06-0.4c-0.01-0.1-0.02-0.18-0.02-0.28c-0.01-0.1-0.01-0.21-0.01-0.32
			v-16.08c0-0.11,0-0.22,0.01-0.32c0.01-0.2,0.03-0.4,0.07-0.6c0.04-0.23,0.1-0.44,0.17-0.66c0.74-2.64,3.3-4.62,6.34-4.62h24.93
			c-3.04,0-5.59-1.97-6.34-4.61c-0.07-0.22-0.13-0.44-0.17-0.66c-0.04-0.2-0.06-0.4-0.07-0.61c-0.01-0.11-0.01-0.21-0.01-0.32
			v-16.09c0-0.11,0-0.21,0.01-0.31c0.16-3.01,2.65-5.48,5.79-5.83h-39.27c-2.3,0-4.34-1.13-5.51-2.81l0.02-0.14l4.14-25.26
			l0.02-0.14l5.89-36.04c6.83,0.92,13.59,2.28,20.22,4.07c0.39,0.1,0.77,0.21,1.16,0.32c0.02,0.01,0.05,0.02,0.08,0.03
			c3.86,1.08,7.67,2.3,11.43,3.67c0.04,0.01,0.07,0.02,0.1,0.04c17.29,6.3,33.4,15.65,47.37,27.78c0.25,0.21,0.5,0.43,0.73,0.66
			c7.26,6.38,13.94,13.52,19.86,21.4c1.19,1.56,2.34,3.15,3.46,4.78c0.37,0.53,0.74,1.07,1.1,1.61c0.02,0.01,0.03,0.03,0.03,0.05
			c1.8,2.66,3.51,5.38,5.13,8.19c3.82,6.61,7.03,13.37,9.66,20.25c3.5,9.12,5.95,18.42,7.4,27.78c0.05,0.24,0.08,0.47,0.11,0.71
			C1314.97,1623.05,1315.39,1632.28,1314.89,1641.42z"/>
		<g>
			
				<ellipse transform="matrix(0.7071 -0.7071 0.7071 0.7071 -818.96 1276.3041)" class="st28" cx="1131.16" cy="1626.72" rx="150.08" ry="150.08"/>
			<path class="st21" d="M1197.78,1761.2c-1.85,1.13-3.73,2.22-5.64,3.27c-0.65,0.36-1.29,0.71-1.94,1.05
				c-1.48,0.79-2.96,1.55-4.45,2.29c-71.47,35.1-158.64,8.16-197.49-62.32c-37.06-67.22-17.14-150.49,43.67-194.21
				c4.85-3.49,9.95-6.72,15.32-9.68c1.92-1.06,3.86-2.08,5.81-3.04c1.89-0.94,3.8-1.84,5.72-2.69c5.87-2.62,11.85-4.83,17.87-6.63
				c8.96-2.7,18.06-4.52,27.17-5.48c28.27-3,56.71,2.17,81.93,14.51c26.76,13.09,49.9,34.25,65.37,62.32
				C1290.08,1631.27,1266.07,1719.66,1197.78,1761.2z"/>
			<g>
				<path class="st22" d="M1120.74,1769.13c-12.55,0-25.17-1.78-37.56-5.36c-34.5-9.98-63.06-32.8-80.4-64.26
					c-17.34-31.46-21.39-67.78-11.41-102.29c9.98-34.5,32.8-63.06,64.26-80.4c64.94-35.8,146.89-12.09,182.68,52.84
					c35.8,64.94,12.09,146.89-52.85,182.68C1165.3,1763.47,1143.14,1769.13,1120.74,1769.13z M1120.33,1503.77
					c-21.34,0-42.97,5.22-62.95,16.24c-30.61,16.87-52.81,44.65-62.52,78.23c-9.71,33.57-5.77,68.92,11.1,99.53
					c16.87,30.61,44.65,52.81,78.23,62.53c33.57,9.71,68.92,5.77,99.53-11.1c63.18-34.83,86.25-114.57,51.42-177.76
					C1211.32,1528.22,1166.49,1503.77,1120.33,1503.77z"/>
			</g>
			<g>
				<path class="st22" d="M1186.68,1647.66c-0.3-0.74-0.61-1.45-0.93-2.16c-2.43-5.35-5.47-9.69-9.1-13
					c-4.11-3.75-8.89-6.56-14.33-8.43c-5.44-1.87-11.51-3.01-18.21-3.42c-6.7-0.41-13.99-0.51-21.87-0.28
					c-4.87,0.15-9.03,0.06-12.49-0.25c-3.45-0.31-6.38-0.95-8.79-1.92c-2.41-0.97-4.36-2.29-5.87-3.98
					c-1.5-1.68-2.74-3.73-3.73-6.15c-0.99-2.42-1.55-4.83-1.69-7.21c-0.15-2.38,0.21-4.64,1.07-6.79c0.86-2.14,2.25-4.12,4.18-5.93
					c1.93-1.82,4.48-3.37,7.65-4.66c5.85-2.38,11.32-2.32,16.39,0.15c5.07,2.48,9.2,7.66,12.39,15.51l30.58-12.41
					c-2.66-6.55-6-12.08-10.01-16.6c-4.01-4.51-8.52-8-13.55-10.47c-5.02-2.46-10.5-3.9-16.42-4.32
					c-5.92-0.42-12.07,0.21-18.45,1.89l-8.66-21.32l-16.92,6.87l8.54,21.03c-6.11,3.17-11.28,6.85-15.54,11.06
					c-4.25,4.21-7.51,8.76-9.79,13.65c-2.29,4.9-3.48,10.04-3.6,15.43c-0.11,5.39,0.96,10.87,3.22,16.43
					c2.61,6.42,5.97,11.51,10.08,15.25c4.11,3.75,8.88,6.55,14.31,8.38c5.43,1.84,11.5,2.95,18.22,3.3
					c6.72,0.36,14.03,0.36,21.92-0.02c4.58-0.26,8.55-0.23,11.93,0.08c3.37,0.31,6.28,0.96,8.74,1.94c2.45,0.99,4.49,2.37,6.12,4.15
					c1.63,1.78,3,4.05,4.12,6.8c0.99,2.43,1.47,4.84,1.46,7.25c-0.01,2.41-0.55,4.71-1.63,6.9c-1.08,2.19-2.7,4.23-4.86,6.1
					c-2.16,1.87-4.89,3.47-8.21,4.82c-2.89,1.17-5.88,1.95-8.97,2.33c-3.09,0.38-6.11,0.07-9.05-0.91c-2.95-0.98-5.7-2.76-8.26-5.34
					c-2.57-2.58-4.8-6.19-6.69-10.85l-30.57,12.41c3.19,7.86,7.2,14.1,12.02,18.69c4.83,4.6,10.11,7.9,15.84,9.88
					c5.74,1.98,11.74,2.85,18,2.59c6.26-0.25,12.44-1.27,18.54-3.06l7.89,19.46l16.82-6.83l-7.94-19.55
					c6.11-3.17,11.34-6.82,15.7-10.96c4.04-3.83,7.19-7.94,9.47-12.37c0.18-0.36,0.36-0.72,0.54-1.08c2.3-4.83,3.54-9.94,3.69-15.35
					C1190.12,1659.01,1189.02,1653.42,1186.68,1647.66z"/>
			</g>
		</g>
	</g>
	<g>
		<g>
			<path class="st12" d="M981.03,887.08c-1.95,2.26-2.18,4.78-1.19,7.46c0,0.01,0.01,0.03,0.02,0.04
				c1.83,4.95,7.81,10.46,14.75,15.95c0.89,0.71,1.67,1.35,2.36,1.94c0.18,0.16,0.36,0.31,0.53,0.47c0.14,0.12,0.27,0.25,0.41,0.36
				c6.47,5.88,4.06,7.26,15.7,19.21c13.27,13.61,22.34,13.8,24.92,12.53c2.18-1.08-2.31-8.32-7.28-16.46
				c-0.24-0.39-0.48-0.79-0.73-1.19c-0.66-1.08-1.32-2.18-1.98-3.27c-5.83-9.79-4.38-14.42-3.12-29.07
				c1.03-11.9,18.03-66.58,18.03-66.58l-25.28-4.17c0,0-7.3,43.49-15.63,50.24c-4.45,3.6-9.47,3.68-13.76,6.35
				c-0.3,0.19-0.6,0.38-0.89,0.57C985.47,883.12,982.99,884.81,981.03,887.08z"/>
			<path class="st11" d="M981.03,887.08c-1.95,2.26-2.18,4.78-1.19,7.46c0,0.01,0.01,0.03,0.02,0.04
				c2.24,4.95,8.06,10.42,14.77,15.9c0.88,0.72,1.65,1.38,2.34,1.99c0.18,0.16,0.36,0.31,0.53,0.47c0.14,0.12,0.27,0.25,0.41,0.36
				c6.47,5.88,4.06,7.26,15.7,19.21c13.27,13.61,22.34,13.8,24.92,12.53c2.18-1.08-2.31-8.32-7.28-16.46
				c-2.57-0.92-14.52-5.68-23.61-17.14c-8-10.07-13.39-23.04-18.84-30.53c-0.3,0.19-0.6,0.38-0.89,0.57
				C985.47,883.12,982.99,884.81,981.03,887.08z"/>
			<path class="st12" d="M1184.51,869.88c1.61,7.78,12.71,6.4,25.1,3.28c12.39-3.12,9.47,0.51,27.12-1.57
				c17.65-2.08,22.95-8.7,23.48-11.33c0.47-2.33-8.27-3.09-17.64-4.11c-1.18-0.12-2.36-0.26-3.55-0.4
				c-10.58-1.25-18.37-8.02-28.01-13.55c-9.13-5.24-22.86-26.76-22.86-26.76l-24.21,2.09c0,0,12.85,19.22,17.82,27.58
				c2.93,4.92,2.82,11.45,2.49,16.49C1184.09,864.33,1183.93,867.14,1184.51,869.88z"/>
			<path class="st11" d="M1209.61,873.16c12.39-3.12,9.47,0.51,27.12-1.57c17.65-2.08,22.95-8.7,23.48-11.33
				c0.47-2.33-8.27-3.09-17.64-4.11l-0.09,0.18c0,0-10.54,7.59-25.24,8.04c-11.98,0.38-24.7-2.97-32.97-2.78
				c-0.17,2.74-0.33,5.54,0.25,8.28C1186.12,877.66,1197.22,876.28,1209.61,873.16z"/>
			<path class="st29" d="M1090.58,715.64l-22.22,61.1l-29,79.77c0,0-8.02,0.83-15.72-1.32c-7.09-1.99-15.24-7.29-15.24-7.29
				s7.61-85.49,22.57-134.64c3.84-12.62,8.16-22.83,12.98-28.59C1067.49,656.44,1090.58,715.64,1090.58,715.64z"/>
			<path class="st15" d="M1066.87,619.02c-14.87-4.68-57.14,1.76-99.59,10.38l-9-14.62l-91.86-6.52c0,0-29.82,67.4-12.93,110.09
				c2.48,6.27,17.78,9.33,17.78,9.34c0,0,53.82,0.59,71.56,0.46c45.66-0.32,96.41-32.07,102.99-33.43
				c10.78-2.23,15.25,19.32,26.2,41.91c10.95,22.59,102.16,99.66,102.16,99.66s13.93,0.04,19.68-2.16c6.17-2.36,8.42-5.4,8.42-5.4
				S1100.41,629.58,1066.87,619.02z"/>
			<path class="st11" d="M946.62,345.25c-6.91-4.05-13.62-4.6-17.69-4.43c-2.93,0.12-5.86-0.14-8.77-0.51
				c-34.82-4.43-55.41,46.27-56.53,61.6c-2.07,28.25-16.98,32.66-37.88,50.49c-41.9,35.75-29.25,76.87-6.09,92.01
				c13.89,9.09,38.21-0.27,38.21-0.27c0.35,0.24,66.41-37.55,98.97-55.78C1005.81,481.04,966.4,356.84,946.62,345.25z"/>
			<path class="st12" d="M929.34,473.23c0.14,0.09-16.05,5.75-26.93,1.02c-10.24-4.44-18.09-21.18-17.94-21.19
				c4.64-0.25,9.71-4.34,13.45-31.01l1.98,0.7l33.34,11.73c0,0-2.33,10.69-3.82,20.86C928.16,463.86,927.51,472.03,929.34,473.23z"
				/>
			<path class="st30" d="M933.23,434.46c0,0-1.42,7.49-3.39,18.19c-19.12-3.3-27.18-19.62-29.94-29.92L933.23,434.46z"/>
			<path class="st12" d="M938.26,445.02c0,0-45.54-5.79-41.5-34.09c4.04-28.3,0.88-48.11,30.13-45.61
				c29.24,2.5,33.34,14.1,34.29,23.88C962.13,398.97,950.21,445.79,938.26,445.02z"/>
			<path class="st11" d="M959.41,373.71c0,0-28.95,25.3-48.74,27.47c-19.79,2.16-27.34-4.14-27.34-4.14s11.61-9.78,18.52-25.47
				c2.04-4.63,6.39-7.82,11.42-8.29C927.42,361.95,954.23,361.2,959.41,373.71z"/>
			<path class="st11" d="M941.19,371.59c0,0,9.81,9.35,12.93,16.32c3.01,6.72,4.01,22.84,1.7,29.26c0,0,14.97-29.62,6.28-43.9
				C952.87,358.12,941.19,371.59,941.19,371.59z"/>
			<path class="st10" d="M968.12,539.97c-0.73,92.1,0.14,72.85-9.88,81.66c-2.41,2.12-9.23,3.42-18.2,4.08
				c-28.22,2.07-77.9-2.23-79.82-7.43c-6.64-18.01-2.08-23.65-7.71-51.26c-0.59-2.94-1.31-6.11-2.16-9.57
				c-4.66-18.96-9.12-25.38,6.74-56c14.38-27.73,29.37-50.27,30.74-49.47c38.62,22.56,41.59,3.35,41.59,3.35
				S968.48,495.05,968.12,539.97z"/>
			<path class="st15" d="M1068.36,776.73l-29,79.77c0,0-8.02,0.83-15.72-1.32c-7.09-1.99-15.24-7.29-15.24-7.29
				s7.61-85.49,22.57-134.64L1068.36,776.73z"/>
			<path class="st10" d="M929.41,455.32c0,0,39.62,6.43,44.39,23.44c4.77,17.01,32.82,116.98,32.82,116.98s-20.09,3.76-29.45-5.47
				c-9.36-9.23-32.95-86-32.95-86L929.41,455.32z"/>
			<path class="st31" d="M940.04,625.71c-28.22,2.07-77.9-2.23-79.82-7.43c-6.64-18.01-2.08-23.65-7.71-51.26l13.35-38.45
				c0,0-1.95,42.72,10.72,53.87c12.66,11.14,51.72,21.32,57.91,30.66C937.47,617.58,939.45,622.09,940.04,625.71z"/>
			<path class="st12" d="M907.56,607.98c0,0,27.82-6.4,32.33-3.96c4.51,2.44,15.56,11.37,16.96,14.49
				c1.4,3.12-10.02-2.31-13.73-3.27c-2.4-0.63-8.7,1.61-11.82,2.67c-13.12,4.48-21.19,2.28-21.19,2.28L907.56,607.98z"/>
			<path class="st10" d="M887.8,451.96c0,0-37.39,2.57-50.21,20.72c-18.05,25.55-53.45,134.16-32.62,148.46
				c23.45,16.11,106.25,3.51,106.25,3.51s2.67-12.91-1.21-19.12c-3.88-6.21-66.31-15.84-69.21-18.7
				c-2.9-2.86,35.58-56.38,35.52-65.01C876.25,513.18,887.8,451.96,887.8,451.96z"/>
			<path class="st12" d="M941.29,611.76c0,0,5.89,7.49,7.81,8.37c1.92,0.89,3.15,0.65,3.15,0.65l-3.98-7.05L941.29,611.76z"/>
			<path class="st12" d="M939.89,604.02l17.03,8.12c0,0-0.71,1.19-2.8,1.11c-2.09-0.08-7.37-1.97-7.37-1.97L939.89,604.02z"/>
		</g>
		<g>
			<g>
				<polygon class="st11" points="945.47,632.29 1079.72,631.34 1119.39,530.63 985.35,531.58 				"/>
				<polygon class="st11" points="1081.26,627.42 903.99,628.67 904.02,632.58 1079.72,631.34 				"/>
			</g>
			<path class="st1" d="M1045.47,581.37c0.99-3.54-1.07-6.38-4.6-6.36c-3.53,0.02-7.19,2.91-8.18,6.45
				c-0.99,3.54,1.07,6.38,4.6,6.36C1040.82,587.79,1044.49,584.91,1045.47,581.37z"/>
		</g>
	</g>
	<g>
		<path class="st32" d="M2157.85,953.13c-17-5.65-28.77,1.48-28.77,1.48c-48.95,2.01-50.76,52.18-45.02,70.85
			c8.07,26.22-20.48,46.9,11.18,57.51c36.74,12.31,67.58-7.13,65.47-0.79C2276.92,1091.35,2196.51,965.97,2157.85,953.13z"/>
		<path class="st8" d="M2107.08,1197.15c0,0-4.65,9.21-13.09,19.79c-10.17,12.73-63.54-17.49-58.94-19.79
			c4.6-2.3,30.59-76.07,41.59-89.15c10.19-12.11,24.36-14.87,24.36-14.87L2107.08,1197.15z"/>
		<path class="st33" d="M2287.17,1718.22c0,0,14.73,13.44,11.86,22.99c-2.87,9.55-16.17,15.92-17.96,27.59
			c-1.8,11.67-8.98,18.04-15.45,18.04c-6.47,0-30.83,0-30.83,0s-4.76-8.21,6.74-10.69c11.5-2.48,15.83-16.19,15.11-28.93
			c-0.72-12.74,1.08-29.72,1.08-29.72l24.43-5.66L2287.17,1718.22z"/>
		<path class="st33" d="M2162.5,1723.93c0,0,5.3,56.95-1.17,60.13l-82.76-0.17c0,0,0-9.55,13.29-11.67
			c13.29-2.12,36.64-9.91,40.6-27.24C2136.42,1727.64,2162.5,1723.93,2162.5,1723.93z"/>
		<path class="st8" d="M2226.16,1158.74c0,0,1.23,17.39,0,38.25c-0.82,13.83-14.81,32.36-16.79,36.94
			c-4.98,11.49-10.6,13.36-10.6,13.36l-43.45,10.65l-15.28,3.74l-48.18-14.39c0,0-21.95-61.25-13.13-95.73
			c8.81-34.48,22.27-58.42,22.27-58.42s32.74-7.36,90.51-3.26L2226.16,1158.74z"/>
		<path class="st34" d="M2230.3,1197.48c-0.82,13.83-18.95,31.87-20.93,36.45c-4.98,11.49-10.6,13.36-10.6,13.36l-43.45,10.65
			l-11.59-16.35c0,0,70.34-19.56,57.02-81.58L2230.3,1197.48z"/>
		<path class="st29" d="M2094.92,1256.59c0,0-23.86,74.27-25.39,99.55c-1.53,25.29,45.61,359.2,47.51,370.85
			c1.79,10.98,15.43,17.98,15.43,17.98s6.27,3.7,15.22,1.17c12.42-3.51,16.35-7.71,16.35-7.71s18.57-238.15,7.08-323.21
			c-11.49-85.07-11.63-158.64-11.63-158.64H2094.92z"/>
		<path class="st15" d="M2196.01,1254.38c0,0,36.39,48.83,39.79,81.85s5.32,148.96,12.55,181.15
			c7.23,32.18,33.79,94.11,33.79,194.49c0,0-2.76,5.75-11.29,8.82c-2.73,0.98-6.38,1.93-9.92,2.74c-7.03,1.61-14.24-1.82-17.45-8.28
			c-17.96-36.15-75.15-152.75-78.09-176.96c-2.07-17.13-20.13-130.49-59.53-197.01c-9.46-15.97,5.8-79.48,5.8-79.48L2196.01,1254.38
			z"/>
		<path class="st34" d="M2091.11,1245.13c0,0,9.58,7.58,28.61,7.96c22.73,0.46,79.05-5.79,79.05-5.79s2.5,6.99,2.4,14.37
			c0,0-68.79,17.35-108.64,2.53C2092.53,1264.2,2087.39,1254.53,2091.11,1245.13z"/>
		<g>
			<path class="st16" d="M2114.27,1272.67c-5.72,0-10.37-5.27-10.37-11.74c0-6.47,4.65-11.74,10.37-11.74s10.37,5.27,10.37,11.74
				C2124.64,1267.41,2119.99,1272.67,2114.27,1272.67z M2114.27,1252.63c-3.82,0-6.93,3.72-6.93,8.3c0,4.58,3.11,8.3,6.93,8.3
				c3.82,0,6.93-3.72,6.93-8.3C2121.2,1256.36,2118.09,1252.63,2114.27,1252.63z"/>
		</g>
		<polygon class="st35" points="2163.96,1294.03 2060.58,1294.99 2009.7,1175.44 2113.09,1174.47 		"/>
		<path class="st12" d="M2150.44,1240l-7.58-9.31c0,0-5.13-4.57-8.85-5.35c-3.72-0.78-11.58-5.31-12.34-4.03
			c-0.76,1.28,6.04,10.39,6.04,10.39l0.35,0.05c-7.81,5.87-27.51,0.69-29.94,3.08c-2.95,2.9,4.06,9.18,7.82,12.7
			c3.76,3.52,14.51,9.4,22.89,6.79c6.13-1.91,15.77-3.85,15.77-3.85L2150.44,1240z"/>
		<path class="st12" d="M2017.48,1196.47c0,0,6.5-7.38,10.63-3.84c4.13,3.54-1.08,20.97-5.02,19.2
			C2019.15,1210.05,2015.22,1198.63,2017.48,1196.47z"/>
		<path class="st8" d="M2191.51,1089.88c0,0,34.47,2.42,47.69,34.54c13.22,32.12,37.51,84.99,32.28,107.15
			c-2.08,8.83-27.2,39.42-131.94,19.98c0,0,0.85-10.96,7.93-16.09c0,0,73.8-23.69,73.67-28.41c-0.24-8.92-9.97-16.62-51.2-57.86
			C2158.74,1137.98,2191.51,1089.88,2191.51,1089.88z"/>
		<path class="st12" d="M2168.73,1091.44c1.02-1.36-0.29-5.71-1.92-13.81c-1.47-7.33-3.97-18.68-3.92-31.44l-2.18,0.36l-36.68,6.17
			c0,0,0.84,9.81,0.86,19.05c0,0.08,0,0.15,0,0.23c0.04,8.02-2.16,20.15,0.54,21.73
			C2139.33,1101.88,2164.82,1096.69,2168.73,1091.44z"/>
		<path class="st36" d="M2124.03,1052.72c0,0,0.73,13.83,0.75,23.07c20.53-0.49,31.48-20.42,35.93-29.24L2124.03,1052.72z"/>
		<path class="st12" d="M2121.82,1069.22c0,0,48.09-6.85,43.36-36.73c-4.73-29.88-1.7-50.89-32.6-47.78
			c-30.9,3.11-35.05,15.45-35.9,25.81C2095.83,1020.88,2109.19,1070.23,2121.82,1069.22z"/>
		<path class="st32" d="M2110.62,987.46c0,0,18.71,32.96,39.69,34.93s28.86-4.82,28.86-4.82s-17.41-9.82-24.04-30.74
			C2155.13,986.83,2117.86,969.2,2110.62,987.46z"/>
		<path class="st32" d="M2114.32,989.79c0,0-9.16,5.19-12.03,12.93c-2.81,7.57-4.69,17.3-2.11,28.46c0,0-13.69-22.25-4.72-37.49
			C2104.97,977.52,2114.32,989.79,2114.32,989.79z"/>
	</g>
	<path class="st37" d="M2901.29,1789.76H73.98c-1.62,0-2.95-1.33-2.95-2.95v-1.89c0-1.62,1.33-2.95,2.95-2.95h2827.31
		c1.62,0,2.95,1.33,2.95,2.95v1.89C2904.24,1788.44,2902.91,1789.76,2901.29,1789.76z"/>
</g>
</svg>
